<?xml version="1.0" encoding="UTF-8" standalone="no"?>
<!DOCTYPE svg PUBLIC "-//W3C//DTD SVG 1.1//EN" "http://www.w3.org/Graphics/SVG/1.1/DTD/svg11.dtd">
<svg width="100%" height="100%" viewBox="0 0 245 40" version="1.1" xmlns="http://www.w3.org/2000/svg" xmlns:xlink="http://www.w3.org/1999/xlink" xml:space="preserve" xmlns:serif="http://www.serif.com/" style="fill-rule:evenodd;clip-rule:evenodd;stroke-linejoin:round;stroke-miterlimit:2;">
    <g transform="matrix(1,0,0,1,-280.645,-328.358)">
        <g>
            <g transform="matrix(1,0,0,1,0,165.821)">
                <g transform="matrix(0.68461,0,0,0.68461,155.254,-58.938)">
                    <circle cx="213.745" cy="353.666" r="10.071" style="fill:rgb(248,221,215);"/>
                </g>
                <g transform="matrix(0.674392,-0.117835,0.117835,0.674392,119.814,-31.0924)">
                    <path d="M196.796,322.001C196.796,322.001 188.814,337.792 200.28,342.647C205.069,344.675 211.25,340.12 211.458,335.595C211.848,327.092 205.332,323.989 196.796,322.001Z" style="fill:rgb(248,221,215);"/>
                </g>
                <g transform="matrix(0.176559,-0.281874,0.338274,0.211886,141.49,165.172)">
                    <path d="M199.538,319.917C199.538,319.917 187.874,338.283 199.34,343.138C204.128,345.166 210.224,343.11 210.432,338.585C210.822,330.082 207.079,324.353 199.538,319.917Z" style="fill:rgb(248,221,215);"/>
                </g>
                <g transform="matrix(-0.291263,-0.160598,0.192732,-0.349542,292.918,344.783)">
                    <path d="M199.538,319.917C199.538,319.917 187.874,338.283 199.34,343.138C204.128,345.166 210.224,343.11 210.432,338.585C210.822,330.082 207.079,324.353 199.538,319.917Z" style="fill:rgb(248,221,215);"/>
                </g>
                <g transform="matrix(-1.1401e-16,0.332605,-0.399156,-1.33012e-16,448.391,118.513)">
                    <path d="M199.538,319.917C199.538,319.917 187.874,338.283 199.34,343.138C204.128,345.166 210.224,343.11 210.432,338.585C210.822,330.082 207.079,324.353 199.538,319.917Z" style="fill:rgb(248,221,215);"/>
                </g>
                <g transform="matrix(0.309413,0.122024,-0.146439,0.371323,291.969,19.804)">
                    <path d="M199.538,319.917C199.538,319.917 187.874,338.283 199.34,343.138C204.128,345.166 210.224,343.11 210.432,338.585C210.822,330.082 207.079,324.353 199.538,319.917Z" style="fill:rgb(248,221,215);"/>
                </g>
                <g transform="matrix(-0.592889,0.342305,-0.342305,-0.592889,544.756,323.579)">
                    <path d="M199.65,321.454C199.65,321.454 189.118,336.31 200.28,342.647C204.802,345.214 210.915,340.092 211.458,335.595C212.214,329.328 206.981,322.998 199.65,321.454Z" style="fill:rgb(248,221,215);"/>
                </g>
                <g transform="matrix(0.17719,0.661282,-0.661282,0.17719,497.898,-17.3142)">
                    <path d="M198.081,320.534C198.081,320.534 188.814,337.792 200.28,342.647C205.069,344.675 211.25,340.12 211.458,335.595C211.848,327.092 205.413,322.078 198.081,320.534Z" style="fill:rgb(248,221,215);"/>
                </g>
                <g transform="matrix(0.0435598,-0.683222,0.683222,0.0435598,51.7033,313.372)">
                    <path d="M196.997,322.531C196.997,322.531 188.814,337.792 200.28,342.647C205.069,344.675 211.25,340.12 211.458,335.595C211.848,327.092 204.329,324.075 196.997,322.531Z" style="fill:rgb(248,221,215);"/>
                </g>
                <g transform="matrix(0.68461,0,0,0.68461,359.329,-59.274)">
                    <circle cx="213.745" cy="353.666" r="10.071" style="fill:rgb(248,221,215);"/>
                </g>
                <g transform="matrix(0.674392,-0.117835,0.117835,0.674392,323.889,-31.4284)">
                    <path d="M196.796,322.001C196.796,322.001 188.814,337.792 200.28,342.647C205.069,344.675 211.25,340.12 211.458,335.595C211.848,327.092 205.332,323.989 196.796,322.001Z" style="fill:rgb(248,221,215);"/>
                </g>
                <g transform="matrix(0.176559,-0.281874,0.338274,0.211886,345.565,164.836)">
                    <path d="M199.538,319.917C199.538,319.917 187.874,338.283 199.34,343.138C204.128,345.166 210.224,343.11 210.432,338.585C210.822,330.082 207.079,324.353 199.538,319.917Z" style="fill:rgb(248,221,215);"/>
                </g>
                <g transform="matrix(-0.291263,-0.160598,0.192732,-0.349542,496.993,344.447)">
                    <path d="M199.538,319.917C199.538,319.917 187.874,338.283 199.34,343.138C204.128,345.166 210.224,343.11 210.432,338.585C210.822,330.082 207.079,324.353 199.538,319.917Z" style="fill:rgb(248,221,215);"/>
                </g>
                <g transform="matrix(-1.1401e-16,0.332605,-0.399156,-1.33012e-16,652.466,118.177)">
                    <path d="M199.538,319.917C199.538,319.917 187.874,338.283 199.34,343.138C204.128,345.166 210.224,343.11 210.432,338.585C210.822,330.082 207.079,324.353 199.538,319.917Z" style="fill:rgb(248,221,215);"/>
                </g>
                <g transform="matrix(0.309413,0.122024,-0.146439,0.371323,496.044,19.468)">
                    <path d="M199.538,319.917C199.538,319.917 187.874,338.283 199.34,343.138C204.128,345.166 210.224,343.11 210.432,338.585C210.822,330.082 207.079,324.353 199.538,319.917Z" style="fill:rgb(248,221,215);"/>
                </g>
                <g transform="matrix(-0.592889,0.342305,-0.342305,-0.592889,748.831,323.243)">
                    <path d="M199.65,321.454C199.65,321.454 189.118,336.31 200.28,342.647C204.802,345.214 210.915,340.092 211.458,335.595C212.214,329.328 206.981,322.998 199.65,321.454Z" style="fill:rgb(248,221,215);"/>
                </g>
                <g transform="matrix(0.17719,0.661282,-0.661282,0.17719,701.972,-17.6502)">
                    <path d="M198.081,320.534C198.081,320.534 188.814,337.792 200.28,342.647C205.069,344.675 211.25,340.12 211.458,335.595C211.848,327.092 205.413,322.078 198.081,320.534Z" style="fill:rgb(248,221,215);"/>
                </g>
                <g transform="matrix(0.0435598,-0.683222,0.683222,0.0435598,255.778,313.036)">
                    <path d="M196.997,322.531C196.997,322.531 188.814,337.792 200.28,342.647C205.069,344.675 211.25,340.12 211.458,335.595C211.848,327.092 204.329,324.075 196.997,322.531Z" style="fill:rgb(248,221,215);"/>
                </g>
            </g>
            <g transform="matrix(0.647326,0,0,0.640019,137.666,237.78)">
                <text x="347.04px" y="183.873px" style="font-family:'Toledo';font-size:31.659px;fill:rgb(248,221,215);">PAUSE</text>
            </g>
        </g>
    </g>
</svg>
