<?xml version="1.0" encoding="UTF-8" standalone="no"?>
<!DOCTYPE svg PUBLIC "-//W3C//DTD SVG 1.1//EN" "http://www.w3.org/Graphics/SVG/1.1/DTD/svg11.dtd">
<svg width="100%" height="100%" viewBox="0 0 65 47" version="1.1" xmlns="http://www.w3.org/2000/svg" xmlns:xlink="http://www.w3.org/1999/xlink" xml:space="preserve" xmlns:serif="http://www.serif.com/" style="fill-rule:evenodd;clip-rule:evenodd;stroke-linejoin:round;stroke-miterlimit:2;">
    <g transform="matrix(1,0,0,1,-227.669,-621.972)">
        <g transform="matrix(-0.527134,6.45553e-17,-1.22465e-16,-1,305.221,776.517)">
            <path d="M35.7,147.081C32.932,147.081 30.278,146.502 28.32,145.47C26.363,144.438 25.264,143.039 25.264,141.58C25.264,135.79 25.264,126.73 25.264,120.94C25.264,119.481 26.363,118.082 28.32,117.05C30.278,116.019 32.932,115.439 35.7,115.439C53.224,115.439 87.765,115.439 99.184,115.439C100.183,115.439 101.14,115.23 101.846,114.858C102.552,114.486 102.948,113.981 102.948,113.455C102.948,113.454 102.948,113.452 102.948,113.451C102.948,112.533 103.996,111.706 105.604,111.355C107.212,111.004 109.063,111.198 110.293,111.847C118.456,116.15 131.564,123.059 139.741,127.37C141.698,128.402 142.798,129.801 142.798,131.26C142.798,132.719 141.698,134.119 139.741,135.15C131.564,139.461 118.456,146.37 110.293,150.673C109.063,151.322 107.212,151.516 105.604,151.165C103.996,150.814 102.948,149.987 102.948,149.069C102.948,149.068 102.948,149.067 102.948,149.065C102.948,148.539 102.552,148.035 101.846,147.662C101.14,147.29 100.183,147.081 99.184,147.081C87.765,147.081 53.224,147.081 35.7,147.081Z" style="fill:rgb(2,5,71);"/>
        </g>
    </g>
</svg>
