<?xml version="1.0" encoding="UTF-8" standalone="no"?>
<!DOCTYPE svg PUBLIC "-//W3C//DTD SVG 1.1//EN" "http://www.w3.org/Graphics/SVG/1.1/DTD/svg11.dtd">
<svg width="100%" height="100%" viewBox="0 0 650 645" version="1.1" xmlns="http://www.w3.org/2000/svg" xmlns:xlink="http://www.w3.org/1999/xlink" xml:space="preserve" xmlns:serif="http://www.serif.com/" style="fill-rule:evenodd;clip-rule:evenodd;stroke-linecap:round;stroke-linejoin:round;stroke-miterlimit:1.5;">
    <g transform="matrix(1,0,0,1,-128.859,-11.2168)">
        <g>
            <g>
                <g id="Partie2" transform="matrix(1.0866,0,0,1.0866,10.2414,-99.599)">
                    <g>
                        <g>
                            <g transform="matrix(1.22729,0,0,0.775888,-38.6282,34.8998)">
                                <path d="M231.129,152.355C231.129,151.654 230.953,150.981 230.639,150.485C230.326,149.989 229.901,149.71 229.457,149.71C221.041,149.71 183.385,149.71 174.969,149.71C174.525,149.71 174.1,149.989 173.786,150.485C173.473,150.981 173.297,151.654 173.297,152.355C173.297,162.004 173.297,195.249 173.297,204.898C173.297,205.599 173.473,206.272 173.786,206.768C174.1,207.264 174.525,207.543 174.969,207.543C183.385,207.543 221.041,207.543 229.457,207.543C229.901,207.543 230.326,207.264 230.639,206.768C230.953,206.272 231.129,205.599 231.129,204.898C231.129,195.249 231.129,162.004 231.129,152.355Z" style="fill:rgb(248,221,215);stroke:rgb(229,194,173);stroke-width:0.97px;"/>
                            </g>
                            <g transform="matrix(1.22729,0,0,0.775888,32.7217,34.8998)">
                                <path d="M231.129,152.355C231.129,151.654 230.953,150.981 230.639,150.485C230.326,149.989 229.901,149.71 229.457,149.71C221.041,149.71 183.385,149.71 174.969,149.71C174.525,149.71 174.1,149.989 173.786,150.485C173.473,150.981 173.297,151.654 173.297,152.355C173.297,162.004 173.297,195.249 173.297,204.898C173.297,205.599 173.473,206.272 173.786,206.768C174.1,207.264 174.525,207.543 174.969,207.543C183.385,207.543 221.041,207.543 229.457,207.543C229.901,207.543 230.326,207.264 230.639,206.768C230.953,206.272 231.129,205.599 231.129,204.898C231.129,195.249 231.129,162.004 231.129,152.355Z" style="fill:rgb(248,221,215);stroke:rgb(229,194,173);stroke-width:0.97px;"/>
                            </g>
                            <g transform="matrix(1.22729,0,0,0.775888,103.7,34.8998)">
                                <path d="M231.129,152.355C231.129,151.654 230.953,150.981 230.639,150.485C230.326,149.989 229.901,149.71 229.457,149.71C221.041,149.71 183.385,149.71 174.969,149.71C174.525,149.71 174.1,149.989 173.786,150.485C173.473,150.981 173.297,151.654 173.297,152.355C173.297,162.004 173.297,195.249 173.297,204.898C173.297,205.599 173.473,206.272 173.786,206.768C174.1,207.264 174.525,207.543 174.969,207.543C183.385,207.543 221.041,207.543 229.457,207.543C229.901,207.543 230.326,207.264 230.639,206.768C230.953,206.272 231.129,205.599 231.129,204.898C231.129,195.249 231.129,162.004 231.129,152.355Z" style="fill:rgb(254,220,155);stroke:rgb(229,194,173);stroke-width:0.97px;"/>
                            </g>
                            <g transform="matrix(1.22729,0,0,0.775888,175.392,34.8998)">
                                <path d="M231.129,152.355C231.129,151.654 230.953,150.981 230.639,150.485C230.326,149.989 229.901,149.71 229.457,149.71C221.041,149.71 183.385,149.71 174.969,149.71C174.525,149.71 174.1,149.989 173.786,150.485C173.473,150.981 173.297,151.654 173.297,152.355C173.297,162.004 173.297,195.249 173.297,204.898C173.297,205.599 173.473,206.272 173.786,206.768C174.1,207.264 174.525,207.543 174.969,207.543C183.385,207.543 221.041,207.543 229.457,207.543C229.901,207.543 230.326,207.264 230.639,206.768C230.953,206.272 231.129,205.599 231.129,204.898C231.129,195.249 231.129,162.004 231.129,152.355Z" style="fill:rgb(248,221,215);stroke:rgb(229,194,173);stroke-width:0.97px;"/>
                            </g>
                            <g transform="matrix(1.22729,0,0,0.775888,246.37,34.8998)">
                                <path d="M231.129,152.355C231.129,151.654 230.953,150.981 230.639,150.485C230.326,149.989 229.901,149.71 229.457,149.71C221.041,149.71 183.385,149.71 174.969,149.71C174.525,149.71 174.1,149.989 173.786,150.485C173.473,150.981 173.297,151.654 173.297,152.355C173.297,162.004 173.297,195.249 173.297,204.898C173.297,205.599 173.473,206.272 173.786,206.768C174.1,207.264 174.525,207.543 174.969,207.543C183.385,207.543 221.041,207.543 229.457,207.543C229.901,207.543 230.326,207.264 230.639,206.768C230.953,206.272 231.129,205.599 231.129,204.898C231.129,195.249 231.129,162.004 231.129,152.355Z" style="fill:rgb(248,221,215);stroke:rgb(229,194,173);stroke-width:0.97px;"/>
                            </g>
                            <g transform="matrix(1.22729,0,0,0.775888,317.348,34.8998)">
                                <path d="M231.129,152.355C231.129,151.654 230.953,150.981 230.639,150.485C230.326,149.989 229.901,149.71 229.457,149.71C221.041,149.71 183.385,149.71 174.969,149.71C174.525,149.71 174.1,149.989 173.786,150.485C173.473,150.981 173.297,151.654 173.297,152.355C173.297,162.004 173.297,195.249 173.297,204.898C173.297,205.599 173.473,206.272 173.786,206.768C174.1,207.264 174.525,207.543 174.969,207.543C183.385,207.543 221.041,207.543 229.457,207.543C229.901,207.543 230.326,207.264 230.639,206.768C230.953,206.272 231.129,205.599 231.129,204.898C231.129,195.249 231.129,162.004 231.129,152.355Z" style="fill:rgb(248,221,215);stroke:rgb(229,194,173);stroke-width:0.97px;"/>
                            </g>
                            <g transform="matrix(1.20591,0,0,0.767993,393.031,36.0819)">
                                <path d="M231.129,152.382C231.129,151.673 230.95,150.994 230.631,150.493C230.312,149.992 229.879,149.71 229.427,149.71C220.963,149.71 183.463,149.71 174.998,149.71C174.547,149.71 174.114,149.992 173.795,150.493C173.476,150.994 173.297,151.673 173.297,152.382C173.297,162.057 173.297,195.196 173.297,204.871C173.297,205.579 173.476,206.259 173.795,206.76C174.114,207.261 174.547,207.543 174.998,207.543C183.463,207.543 220.963,207.543 229.427,207.543C229.879,207.543 230.312,207.261 230.631,206.76C230.95,206.259 231.129,205.579 231.129,204.871C231.129,195.196 231.129,162.057 231.129,152.382Z" style="fill:rgb(248,221,215);stroke:rgb(229,194,173);stroke-width:0.99px;"/>
                            </g>
                        </g>
                        <g transform="matrix(1,0,0,1,0,45.5227)">
                            <g transform="matrix(1.22729,0,0,0.775888,-38.6282,34.8998)">
                                <path d="M231.129,152.355C231.129,151.654 230.953,150.981 230.639,150.485C230.326,149.989 229.901,149.71 229.457,149.71C221.041,149.71 183.385,149.71 174.969,149.71C174.525,149.71 174.1,149.989 173.786,150.485C173.473,150.981 173.297,151.654 173.297,152.355C173.297,162.004 173.297,195.249 173.297,204.898C173.297,205.599 173.473,206.272 173.786,206.768C174.1,207.264 174.525,207.543 174.969,207.543C183.385,207.543 221.041,207.543 229.457,207.543C229.901,207.543 230.326,207.264 230.639,206.768C230.953,206.272 231.129,205.599 231.129,204.898C231.129,195.249 231.129,162.004 231.129,152.355Z" style="fill:rgb(248,221,215);stroke:rgb(229,194,173);stroke-width:0.97px;"/>
                            </g>
                            <g transform="matrix(1.22729,0,0,0.775888,32.7217,34.8998)">
                                <path d="M231.129,152.355C231.129,151.654 230.953,150.981 230.639,150.485C230.326,149.989 229.901,149.71 229.457,149.71C221.041,149.71 183.385,149.71 174.969,149.71C174.525,149.71 174.1,149.989 173.786,150.485C173.473,150.981 173.297,151.654 173.297,152.355C173.297,162.004 173.297,195.249 173.297,204.898C173.297,205.599 173.473,206.272 173.786,206.768C174.1,207.264 174.525,207.543 174.969,207.543C183.385,207.543 221.041,207.543 229.457,207.543C229.901,207.543 230.326,207.264 230.639,206.768C230.953,206.272 231.129,205.599 231.129,204.898C231.129,195.249 231.129,162.004 231.129,152.355Z" style="fill:rgb(248,221,215);stroke:rgb(229,194,173);stroke-width:0.97px;"/>
                            </g>
                            <g transform="matrix(1.22729,0,0,0.775888,103.7,34.8998)">
                                <path d="M231.129,152.355C231.129,151.654 230.953,150.981 230.639,150.485C230.326,149.989 229.901,149.71 229.457,149.71C221.041,149.71 183.385,149.71 174.969,149.71C174.525,149.71 174.1,149.989 173.786,150.485C173.473,150.981 173.297,151.654 173.297,152.355C173.297,162.004 173.297,195.249 173.297,204.898C173.297,205.599 173.473,206.272 173.786,206.768C174.1,207.264 174.525,207.543 174.969,207.543C183.385,207.543 221.041,207.543 229.457,207.543C229.901,207.543 230.326,207.264 230.639,206.768C230.953,206.272 231.129,205.599 231.129,204.898C231.129,195.249 231.129,162.004 231.129,152.355Z" style="fill:rgb(248,221,215);stroke:rgb(229,194,173);stroke-width:0.97px;"/>
                            </g>
                            <g transform="matrix(1.22729,0,0,0.775888,175.392,34.8998)">
                                <path d="M231.129,152.355C231.129,151.654 230.953,150.981 230.639,150.485C230.326,149.989 229.901,149.71 229.457,149.71C221.041,149.71 183.385,149.71 174.969,149.71C174.525,149.71 174.1,149.989 173.786,150.485C173.473,150.981 173.297,151.654 173.297,152.355C173.297,162.004 173.297,195.249 173.297,204.898C173.297,205.599 173.473,206.272 173.786,206.768C174.1,207.264 174.525,207.543 174.969,207.543C183.385,207.543 221.041,207.543 229.457,207.543C229.901,207.543 230.326,207.264 230.639,206.768C230.953,206.272 231.129,205.599 231.129,204.898C231.129,195.249 231.129,162.004 231.129,152.355Z" style="fill:rgb(248,221,215);stroke:rgb(229,194,173);stroke-width:0.97px;"/>
                            </g>
                            <g transform="matrix(1.22729,0,0,0.775888,246.37,34.8998)">
                                <path d="M231.129,152.355C231.129,151.654 230.953,150.981 230.639,150.485C230.326,149.989 229.901,149.71 229.457,149.71C221.041,149.71 183.385,149.71 174.969,149.71C174.525,149.71 174.1,149.989 173.786,150.485C173.473,150.981 173.297,151.654 173.297,152.355C173.297,162.004 173.297,195.249 173.297,204.898C173.297,205.599 173.473,206.272 173.786,206.768C174.1,207.264 174.525,207.543 174.969,207.543C183.385,207.543 221.041,207.543 229.457,207.543C229.901,207.543 230.326,207.264 230.639,206.768C230.953,206.272 231.129,205.599 231.129,204.898C231.129,195.249 231.129,162.004 231.129,152.355Z" style="fill:rgb(248,221,215);stroke:rgb(229,194,173);stroke-width:0.97px;"/>
                            </g>
                            <g transform="matrix(1.22729,0,0,0.775888,317.348,34.8998)">
                                <path d="M231.129,152.355C231.129,151.654 230.953,150.981 230.639,150.485C230.326,149.989 229.901,149.71 229.457,149.71C221.041,149.71 183.385,149.71 174.969,149.71C174.525,149.71 174.1,149.989 173.786,150.485C173.473,150.981 173.297,151.654 173.297,152.355C173.297,162.004 173.297,195.249 173.297,204.898C173.297,205.599 173.473,206.272 173.786,206.768C174.1,207.264 174.525,207.543 174.969,207.543C183.385,207.543 221.041,207.543 229.457,207.543C229.901,207.543 230.326,207.264 230.639,206.768C230.953,206.272 231.129,205.599 231.129,204.898C231.129,195.249 231.129,162.004 231.129,152.355Z" style="fill:rgb(248,221,215);stroke:rgb(229,194,173);stroke-width:0.97px;"/>
                            </g>
                            <g transform="matrix(1.20591,0,0,0.775888,393.031,34.8998)">
                                <path d="M231.129,152.355C231.129,151.654 230.95,150.981 230.631,150.485C230.312,149.989 229.879,149.71 229.427,149.71C220.963,149.71 183.463,149.71 174.998,149.71C174.547,149.71 174.114,149.989 173.795,150.485C173.476,150.981 173.297,151.654 173.297,152.355C173.297,162.004 173.297,195.249 173.297,204.898C173.297,205.599 173.476,206.272 173.795,206.768C174.114,207.264 174.547,207.543 174.998,207.543C183.463,207.543 220.963,207.543 229.427,207.543C229.879,207.543 230.312,207.264 230.631,206.768C230.95,206.272 231.129,205.599 231.129,204.898C231.129,195.249 231.129,162.004 231.129,152.355Z" style="fill:rgb(248,221,215);stroke:rgb(229,194,173);stroke-width:0.99px;"/>
                            </g>
                        </g>
                        <g transform="matrix(1,0,0,1,0,91.0454)">
                            <g transform="matrix(1.22729,0,0,0.775888,-38.6282,34.8998)">
                                <path d="M231.129,152.355C231.129,151.654 230.953,150.981 230.639,150.485C230.326,149.989 229.901,149.71 229.457,149.71C221.041,149.71 183.385,149.71 174.969,149.71C174.525,149.71 174.1,149.989 173.786,150.485C173.473,150.981 173.297,151.654 173.297,152.355C173.297,162.004 173.297,195.249 173.297,204.898C173.297,205.599 173.473,206.272 173.786,206.768C174.1,207.264 174.525,207.543 174.969,207.543C183.385,207.543 221.041,207.543 229.457,207.543C229.901,207.543 230.326,207.264 230.639,206.768C230.953,206.272 231.129,205.599 231.129,204.898C231.129,195.249 231.129,162.004 231.129,152.355Z" style="fill:rgb(248,221,215);stroke:rgb(229,194,173);stroke-width:0.97px;"/>
                            </g>
                            <g transform="matrix(1.22729,0,0,0.775888,32.7217,34.8998)">
                                <path d="M231.129,152.355C231.129,151.654 230.953,150.981 230.639,150.485C230.326,149.989 229.901,149.71 229.457,149.71C221.041,149.71 183.385,149.71 174.969,149.71C174.525,149.71 174.1,149.989 173.786,150.485C173.473,150.981 173.297,151.654 173.297,152.355C173.297,162.004 173.297,195.249 173.297,204.898C173.297,205.599 173.473,206.272 173.786,206.768C174.1,207.264 174.525,207.543 174.969,207.543C183.385,207.543 221.041,207.543 229.457,207.543C229.901,207.543 230.326,207.264 230.639,206.768C230.953,206.272 231.129,205.599 231.129,204.898C231.129,195.249 231.129,162.004 231.129,152.355Z" style="fill:rgb(248,221,215);stroke:rgb(229,194,173);stroke-width:0.97px;"/>
                            </g>
                            <g transform="matrix(1.22729,0,0,0.775888,103.7,34.8998)">
                                <path d="M231.129,152.355C231.129,151.654 230.953,150.981 230.639,150.485C230.326,149.989 229.901,149.71 229.457,149.71C221.041,149.71 183.385,149.71 174.969,149.71C174.525,149.71 174.1,149.989 173.786,150.485C173.473,150.981 173.297,151.654 173.297,152.355C173.297,162.004 173.297,195.249 173.297,204.898C173.297,205.599 173.473,206.272 173.786,206.768C174.1,207.264 174.525,207.543 174.969,207.543C183.385,207.543 221.041,207.543 229.457,207.543C229.901,207.543 230.326,207.264 230.639,206.768C230.953,206.272 231.129,205.599 231.129,204.898C231.129,195.249 231.129,162.004 231.129,152.355Z" style="fill:rgb(248,221,215);stroke:rgb(229,194,173);stroke-width:0.97px;"/>
                            </g>
                            <g transform="matrix(1.22729,0,0,0.775888,175.392,34.8998)">
                                <path d="M231.129,152.355C231.129,151.654 230.953,150.981 230.639,150.485C230.326,149.989 229.901,149.71 229.457,149.71C221.041,149.71 183.385,149.71 174.969,149.71C174.525,149.71 174.1,149.989 173.786,150.485C173.473,150.981 173.297,151.654 173.297,152.355C173.297,162.004 173.297,195.249 173.297,204.898C173.297,205.599 173.473,206.272 173.786,206.768C174.1,207.264 174.525,207.543 174.969,207.543C183.385,207.543 221.041,207.543 229.457,207.543C229.901,207.543 230.326,207.264 230.639,206.768C230.953,206.272 231.129,205.599 231.129,204.898C231.129,195.249 231.129,162.004 231.129,152.355Z" style="fill:rgb(248,221,215);stroke:rgb(229,194,173);stroke-width:0.97px;"/>
                            </g>
                            <g transform="matrix(1.22729,0,0,0.775888,246.37,34.8998)">
                                <path d="M231.129,152.355C231.129,151.654 230.953,150.981 230.639,150.485C230.326,149.989 229.901,149.71 229.457,149.71C221.041,149.71 183.385,149.71 174.969,149.71C174.525,149.71 174.1,149.989 173.786,150.485C173.473,150.981 173.297,151.654 173.297,152.355C173.297,162.004 173.297,195.249 173.297,204.898C173.297,205.599 173.473,206.272 173.786,206.768C174.1,207.264 174.525,207.543 174.969,207.543C183.385,207.543 221.041,207.543 229.457,207.543C229.901,207.543 230.326,207.264 230.639,206.768C230.953,206.272 231.129,205.599 231.129,204.898C231.129,195.249 231.129,162.004 231.129,152.355Z" style="fill:rgb(248,221,215);stroke:rgb(229,194,173);stroke-width:0.97px;"/>
                            </g>
                            <g transform="matrix(1.22729,0,0,0.775888,317.348,34.8998)">
                                <path d="M231.129,152.355C231.129,151.654 230.953,150.981 230.639,150.485C230.326,149.989 229.901,149.71 229.457,149.71C221.041,149.71 183.385,149.71 174.969,149.71C174.525,149.71 174.1,149.989 173.786,150.485C173.473,150.981 173.297,151.654 173.297,152.355C173.297,162.004 173.297,195.249 173.297,204.898C173.297,205.599 173.473,206.272 173.786,206.768C174.1,207.264 174.525,207.543 174.969,207.543C183.385,207.543 221.041,207.543 229.457,207.543C229.901,207.543 230.326,207.264 230.639,206.768C230.953,206.272 231.129,205.599 231.129,204.898C231.129,195.249 231.129,162.004 231.129,152.355Z" style="fill:rgb(248,221,215);stroke:rgb(229,194,173);stroke-width:0.97px;"/>
                            </g>
                            <g transform="matrix(1.20591,0,0,0.775888,393.031,34.8998)">
                                <path d="M231.129,152.355C231.129,151.654 230.95,150.981 230.631,150.485C230.312,149.989 229.879,149.71 229.427,149.71C220.963,149.71 183.463,149.71 174.998,149.71C174.547,149.71 174.114,149.989 173.795,150.485C173.476,150.981 173.297,151.654 173.297,152.355C173.297,162.004 173.297,195.249 173.297,204.898C173.297,205.599 173.476,206.272 173.795,206.768C174.114,207.264 174.547,207.543 174.998,207.543C183.463,207.543 220.963,207.543 229.427,207.543C229.879,207.543 230.312,207.264 230.631,206.768C230.95,206.272 231.129,205.599 231.129,204.898C231.129,195.249 231.129,162.004 231.129,152.355Z" style="fill:rgb(248,221,215);stroke:rgb(229,194,173);stroke-width:0.99px;"/>
                            </g>
                        </g>
                        <g transform="matrix(1,0,0,1,0,136.568)">
                            <g transform="matrix(1.22729,0,0,0.775888,-38.6282,34.8998)">
                                <path d="M231.129,152.355C231.129,151.654 230.953,150.981 230.639,150.485C230.326,149.989 229.901,149.71 229.457,149.71C221.041,149.71 183.385,149.71 174.969,149.71C174.525,149.71 174.1,149.989 173.786,150.485C173.473,150.981 173.297,151.654 173.297,152.355C173.297,162.004 173.297,195.249 173.297,204.898C173.297,205.599 173.473,206.272 173.786,206.768C174.1,207.264 174.525,207.543 174.969,207.543C183.385,207.543 221.041,207.543 229.457,207.543C229.901,207.543 230.326,207.264 230.639,206.768C230.953,206.272 231.129,205.599 231.129,204.898C231.129,195.249 231.129,162.004 231.129,152.355Z" style="fill:rgb(248,221,215);stroke:rgb(229,194,173);stroke-width:0.97px;"/>
                            </g>
                            <g transform="matrix(1.22729,0,0,0.775888,32.7217,34.8998)">
                                <path d="M231.129,152.355C231.129,151.654 230.953,150.981 230.639,150.485C230.326,149.989 229.901,149.71 229.457,149.71C221.041,149.71 183.385,149.71 174.969,149.71C174.525,149.71 174.1,149.989 173.786,150.485C173.473,150.981 173.297,151.654 173.297,152.355C173.297,162.004 173.297,195.249 173.297,204.898C173.297,205.599 173.473,206.272 173.786,206.768C174.1,207.264 174.525,207.543 174.969,207.543C183.385,207.543 221.041,207.543 229.457,207.543C229.901,207.543 230.326,207.264 230.639,206.768C230.953,206.272 231.129,205.599 231.129,204.898C231.129,195.249 231.129,162.004 231.129,152.355Z" style="fill:rgb(248,221,215);stroke:rgb(229,194,173);stroke-width:0.97px;"/>
                            </g>
                            <g transform="matrix(1.22729,0,0,0.775888,103.7,34.8998)">
                                <path d="M231.129,152.355C231.129,151.654 230.953,150.981 230.639,150.485C230.326,149.989 229.901,149.71 229.457,149.71C221.041,149.71 183.385,149.71 174.969,149.71C174.525,149.71 174.1,149.989 173.786,150.485C173.473,150.981 173.297,151.654 173.297,152.355C173.297,162.004 173.297,195.249 173.297,204.898C173.297,205.599 173.473,206.272 173.786,206.768C174.1,207.264 174.525,207.543 174.969,207.543C183.385,207.543 221.041,207.543 229.457,207.543C229.901,207.543 230.326,207.264 230.639,206.768C230.953,206.272 231.129,205.599 231.129,204.898C231.129,195.249 231.129,162.004 231.129,152.355Z" style="fill:rgb(248,221,215);stroke:rgb(229,194,173);stroke-width:0.97px;"/>
                            </g>
                            <g transform="matrix(1.22729,0,0,0.775888,175.392,34.8998)">
                                <path d="M231.129,152.355C231.129,151.654 230.953,150.981 230.639,150.485C230.326,149.989 229.901,149.71 229.457,149.71C221.041,149.71 183.385,149.71 174.969,149.71C174.525,149.71 174.1,149.989 173.786,150.485C173.473,150.981 173.297,151.654 173.297,152.355C173.297,162.004 173.297,195.249 173.297,204.898C173.297,205.599 173.473,206.272 173.786,206.768C174.1,207.264 174.525,207.543 174.969,207.543C183.385,207.543 221.041,207.543 229.457,207.543C229.901,207.543 230.326,207.264 230.639,206.768C230.953,206.272 231.129,205.599 231.129,204.898C231.129,195.249 231.129,162.004 231.129,152.355Z" style="fill:rgb(248,221,215);stroke:rgb(229,194,173);stroke-width:0.97px;"/>
                            </g>
                            <g transform="matrix(1.22729,0,0,0.775888,246.37,34.8998)">
                                <path d="M231.129,152.355C231.129,151.654 230.953,150.981 230.639,150.485C230.326,149.989 229.901,149.71 229.457,149.71C221.041,149.71 183.385,149.71 174.969,149.71C174.525,149.71 174.1,149.989 173.786,150.485C173.473,150.981 173.297,151.654 173.297,152.355C173.297,162.004 173.297,195.249 173.297,204.898C173.297,205.599 173.473,206.272 173.786,206.768C174.1,207.264 174.525,207.543 174.969,207.543C183.385,207.543 221.041,207.543 229.457,207.543C229.901,207.543 230.326,207.264 230.639,206.768C230.953,206.272 231.129,205.599 231.129,204.898C231.129,195.249 231.129,162.004 231.129,152.355Z" style="fill:rgb(248,221,215);stroke:rgb(229,194,173);stroke-width:0.97px;"/>
                            </g>
                            <g transform="matrix(1.22729,0,0,0.775888,317.348,34.8998)">
                                <path d="M231.129,152.355C231.129,151.654 230.953,150.981 230.639,150.485C230.326,149.989 229.901,149.71 229.457,149.71C221.041,149.71 183.385,149.71 174.969,149.71C174.525,149.71 174.1,149.989 173.786,150.485C173.473,150.981 173.297,151.654 173.297,152.355C173.297,162.004 173.297,195.249 173.297,204.898C173.297,205.599 173.473,206.272 173.786,206.768C174.1,207.264 174.525,207.543 174.969,207.543C183.385,207.543 221.041,207.543 229.457,207.543C229.901,207.543 230.326,207.264 230.639,206.768C230.953,206.272 231.129,205.599 231.129,204.898C231.129,195.249 231.129,162.004 231.129,152.355Z" style="fill:rgb(248,221,215);stroke:rgb(229,194,173);stroke-width:0.97px;"/>
                            </g>
                            <g transform="matrix(1.20591,0,0,0.775888,393.031,34.8998)">
                                <path d="M231.129,152.355C231.129,151.654 230.95,150.981 230.631,150.485C230.312,149.989 229.879,149.71 229.427,149.71C220.963,149.71 183.463,149.71 174.998,149.71C174.547,149.71 174.114,149.989 173.795,150.485C173.476,150.981 173.297,151.654 173.297,152.355C173.297,162.004 173.297,195.249 173.297,204.898C173.297,205.599 173.476,206.272 173.795,206.768C174.114,207.264 174.547,207.543 174.998,207.543C183.463,207.543 220.963,207.543 229.427,207.543C229.879,207.543 230.312,207.264 230.631,206.768C230.95,206.272 231.129,205.599 231.129,204.898C231.129,195.249 231.129,162.004 231.129,152.355Z" style="fill:rgb(248,221,215);stroke:rgb(229,194,173);stroke-width:0.99px;"/>
                            </g>
                        </g>
                        <g transform="matrix(1,0,0,1,0,182.091)">
                            <g transform="matrix(1.22729,0,0,0.775888,-38.6282,34.8998)">
                                <path d="M231.129,152.355C231.129,151.654 230.953,150.981 230.639,150.485C230.326,149.989 229.901,149.71 229.457,149.71C221.041,149.71 183.385,149.71 174.969,149.71C174.525,149.71 174.1,149.989 173.786,150.485C173.473,150.981 173.297,151.654 173.297,152.355C173.297,162.004 173.297,195.249 173.297,204.898C173.297,205.599 173.473,206.272 173.786,206.768C174.1,207.264 174.525,207.543 174.969,207.543C183.385,207.543 221.041,207.543 229.457,207.543C229.901,207.543 230.326,207.264 230.639,206.768C230.953,206.272 231.129,205.599 231.129,204.898C231.129,195.249 231.129,162.004 231.129,152.355Z" style="fill:rgb(248,221,215);stroke:rgb(229,194,173);stroke-width:0.97px;"/>
                            </g>
                            <g transform="matrix(1.22729,0,0,0.775888,32.7217,34.8998)">
                                <path d="M231.129,152.355C231.129,151.654 230.953,150.981 230.639,150.485C230.326,149.989 229.901,149.71 229.457,149.71C221.041,149.71 183.385,149.71 174.969,149.71C174.525,149.71 174.1,149.989 173.786,150.485C173.473,150.981 173.297,151.654 173.297,152.355C173.297,162.004 173.297,195.249 173.297,204.898C173.297,205.599 173.473,206.272 173.786,206.768C174.1,207.264 174.525,207.543 174.969,207.543C183.385,207.543 221.041,207.543 229.457,207.543C229.901,207.543 230.326,207.264 230.639,206.768C230.953,206.272 231.129,205.599 231.129,204.898C231.129,195.249 231.129,162.004 231.129,152.355Z" style="fill:rgb(248,221,215);stroke:rgb(229,194,173);stroke-width:0.97px;"/>
                            </g>
                            <g transform="matrix(1.22729,0,0,0.775888,103.7,34.8998)">
                                <path d="M231.129,152.355C231.129,151.654 230.953,150.981 230.639,150.485C230.326,149.989 229.901,149.71 229.457,149.71C221.041,149.71 183.385,149.71 174.969,149.71C174.525,149.71 174.1,149.989 173.786,150.485C173.473,150.981 173.297,151.654 173.297,152.355C173.297,162.004 173.297,195.249 173.297,204.898C173.297,205.599 173.473,206.272 173.786,206.768C174.1,207.264 174.525,207.543 174.969,207.543C183.385,207.543 221.041,207.543 229.457,207.543C229.901,207.543 230.326,207.264 230.639,206.768C230.953,206.272 231.129,205.599 231.129,204.898C231.129,195.249 231.129,162.004 231.129,152.355Z" style="fill:rgb(248,221,215);stroke:rgb(229,194,173);stroke-width:0.97px;"/>
                            </g>
                            <g transform="matrix(1.22729,0,0,0.775888,175.392,34.8998)">
                                <path d="M231.129,152.355C231.129,151.654 230.953,150.981 230.639,150.485C230.326,149.989 229.901,149.71 229.457,149.71C221.041,149.71 183.385,149.71 174.969,149.71C174.525,149.71 174.1,149.989 173.786,150.485C173.473,150.981 173.297,151.654 173.297,152.355C173.297,162.004 173.297,195.249 173.297,204.898C173.297,205.599 173.473,206.272 173.786,206.768C174.1,207.264 174.525,207.543 174.969,207.543C183.385,207.543 221.041,207.543 229.457,207.543C229.901,207.543 230.326,207.264 230.639,206.768C230.953,206.272 231.129,205.599 231.129,204.898C231.129,195.249 231.129,162.004 231.129,152.355Z" style="fill:rgb(248,221,215);stroke:rgb(229,194,173);stroke-width:0.97px;"/>
                            </g>
                            <g transform="matrix(1.22729,0,0,0.775888,246.37,34.8998)">
                                <path d="M231.129,152.355C231.129,151.654 230.953,150.981 230.639,150.485C230.326,149.989 229.901,149.71 229.457,149.71C221.041,149.71 183.385,149.71 174.969,149.71C174.525,149.71 174.1,149.989 173.786,150.485C173.473,150.981 173.297,151.654 173.297,152.355C173.297,162.004 173.297,195.249 173.297,204.898C173.297,205.599 173.473,206.272 173.786,206.768C174.1,207.264 174.525,207.543 174.969,207.543C183.385,207.543 221.041,207.543 229.457,207.543C229.901,207.543 230.326,207.264 230.639,206.768C230.953,206.272 231.129,205.599 231.129,204.898C231.129,195.249 231.129,162.004 231.129,152.355Z" style="fill:rgb(248,221,215);stroke:rgb(229,194,173);stroke-width:0.97px;"/>
                            </g>
                            <g transform="matrix(1.22729,0,0,0.775888,317.348,34.8998)">
                                <path d="M231.129,152.355C231.129,151.654 230.953,150.981 230.639,150.485C230.326,149.989 229.901,149.71 229.457,149.71C221.041,149.71 183.385,149.71 174.969,149.71C174.525,149.71 174.1,149.989 173.786,150.485C173.473,150.981 173.297,151.654 173.297,152.355C173.297,162.004 173.297,195.249 173.297,204.898C173.297,205.599 173.473,206.272 173.786,206.768C174.1,207.264 174.525,207.543 174.969,207.543C183.385,207.543 221.041,207.543 229.457,207.543C229.901,207.543 230.326,207.264 230.639,206.768C230.953,206.272 231.129,205.599 231.129,204.898C231.129,195.249 231.129,162.004 231.129,152.355Z" style="fill:rgb(248,221,215);stroke:rgb(229,194,173);stroke-width:0.97px;"/>
                            </g>
                            <g transform="matrix(1.20591,0,0,0.775888,393.031,34.8998)">
                                <path d="M231.129,152.355C231.129,151.654 230.95,150.981 230.631,150.485C230.312,149.989 229.879,149.71 229.427,149.71C220.963,149.71 183.463,149.71 174.998,149.71C174.547,149.71 174.114,149.989 173.795,150.485C173.476,150.981 173.297,151.654 173.297,152.355C173.297,162.004 173.297,195.249 173.297,204.898C173.297,205.599 173.476,206.272 173.795,206.768C174.114,207.264 174.547,207.543 174.998,207.543C183.463,207.543 220.963,207.543 229.427,207.543C229.879,207.543 230.312,207.264 230.631,206.768C230.95,206.272 231.129,205.599 231.129,204.898C231.129,195.249 231.129,162.004 231.129,152.355Z" style="fill:rgb(248,221,215);stroke:rgb(229,194,173);stroke-width:0.99px;"/>
                            </g>
                        </g>
                        <g transform="matrix(1,0,0,1,0,227.614)">
                            <g transform="matrix(1.22729,0,0,0.775888,-38.6282,34.8998)">
                                <path d="M231.129,152.355C231.129,151.654 230.953,150.981 230.639,150.485C230.326,149.989 229.901,149.71 229.457,149.71C221.041,149.71 183.385,149.71 174.969,149.71C174.525,149.71 174.1,149.989 173.786,150.485C173.473,150.981 173.297,151.654 173.297,152.355C173.297,162.004 173.297,195.249 173.297,204.898C173.297,205.599 173.473,206.272 173.786,206.768C174.1,207.264 174.525,207.543 174.969,207.543C183.385,207.543 221.041,207.543 229.457,207.543C229.901,207.543 230.326,207.264 230.639,206.768C230.953,206.272 231.129,205.599 231.129,204.898C231.129,195.249 231.129,162.004 231.129,152.355Z" style="fill:rgb(248,221,215);stroke:rgb(229,194,173);stroke-width:0.97px;"/>
                            </g>
                            <g transform="matrix(1.22729,0,0,0.775888,32.7217,34.8998)">
                                <path d="M231.129,152.355C231.129,151.654 230.953,150.981 230.639,150.485C230.326,149.989 229.901,149.71 229.457,149.71C221.041,149.71 183.385,149.71 174.969,149.71C174.525,149.71 174.1,149.989 173.786,150.485C173.473,150.981 173.297,151.654 173.297,152.355C173.297,162.004 173.297,195.249 173.297,204.898C173.297,205.599 173.473,206.272 173.786,206.768C174.1,207.264 174.525,207.543 174.969,207.543C183.385,207.543 221.041,207.543 229.457,207.543C229.901,207.543 230.326,207.264 230.639,206.768C230.953,206.272 231.129,205.599 231.129,204.898C231.129,195.249 231.129,162.004 231.129,152.355Z" style="fill:rgb(248,221,215);stroke:rgb(229,194,173);stroke-width:0.97px;"/>
                            </g>
                            <g transform="matrix(1.22729,0,0,0.775888,103.7,34.8998)">
                                <path d="M231.129,152.355C231.129,151.654 230.953,150.981 230.639,150.485C230.326,149.989 229.901,149.71 229.457,149.71C221.041,149.71 183.385,149.71 174.969,149.71C174.525,149.71 174.1,149.989 173.786,150.485C173.473,150.981 173.297,151.654 173.297,152.355C173.297,162.004 173.297,195.249 173.297,204.898C173.297,205.599 173.473,206.272 173.786,206.768C174.1,207.264 174.525,207.543 174.969,207.543C183.385,207.543 221.041,207.543 229.457,207.543C229.901,207.543 230.326,207.264 230.639,206.768C230.953,206.272 231.129,205.599 231.129,204.898C231.129,195.249 231.129,162.004 231.129,152.355Z" style="fill:rgb(248,221,215);stroke:rgb(229,194,173);stroke-width:0.97px;"/>
                            </g>
                            <g transform="matrix(1.22729,0,0,0.775888,175.392,34.8998)">
                                <path d="M231.129,152.355C231.129,151.654 230.953,150.981 230.639,150.485C230.326,149.989 229.901,149.71 229.457,149.71C221.041,149.71 183.385,149.71 174.969,149.71C174.525,149.71 174.1,149.989 173.786,150.485C173.473,150.981 173.297,151.654 173.297,152.355C173.297,162.004 173.297,195.249 173.297,204.898C173.297,205.599 173.473,206.272 173.786,206.768C174.1,207.264 174.525,207.543 174.969,207.543C183.385,207.543 221.041,207.543 229.457,207.543C229.901,207.543 230.326,207.264 230.639,206.768C230.953,206.272 231.129,205.599 231.129,204.898C231.129,195.249 231.129,162.004 231.129,152.355Z" style="fill:rgb(248,221,215);stroke:rgb(229,194,173);stroke-width:0.97px;"/>
                            </g>
                            <g transform="matrix(1.22729,0,0,0.775888,246.37,34.8998)">
                                <path d="M231.129,152.355C231.129,151.654 230.953,150.981 230.639,150.485C230.326,149.989 229.901,149.71 229.457,149.71C221.041,149.71 183.385,149.71 174.969,149.71C174.525,149.71 174.1,149.989 173.786,150.485C173.473,150.981 173.297,151.654 173.297,152.355C173.297,162.004 173.297,195.249 173.297,204.898C173.297,205.599 173.473,206.272 173.786,206.768C174.1,207.264 174.525,207.543 174.969,207.543C183.385,207.543 221.041,207.543 229.457,207.543C229.901,207.543 230.326,207.264 230.639,206.768C230.953,206.272 231.129,205.599 231.129,204.898C231.129,195.249 231.129,162.004 231.129,152.355Z" style="fill:rgb(248,221,215);stroke:rgb(229,194,173);stroke-width:0.97px;"/>
                            </g>
                            <g transform="matrix(1.22729,0,0,0.775888,317.348,34.8998)">
                                <path d="M231.129,152.355C231.129,151.654 230.953,150.981 230.639,150.485C230.326,149.989 229.901,149.71 229.457,149.71C221.041,149.71 183.385,149.71 174.969,149.71C174.525,149.71 174.1,149.989 173.786,150.485C173.473,150.981 173.297,151.654 173.297,152.355C173.297,162.004 173.297,195.249 173.297,204.898C173.297,205.599 173.473,206.272 173.786,206.768C174.1,207.264 174.525,207.543 174.969,207.543C183.385,207.543 221.041,207.543 229.457,207.543C229.901,207.543 230.326,207.264 230.639,206.768C230.953,206.272 231.129,205.599 231.129,204.898C231.129,195.249 231.129,162.004 231.129,152.355Z" style="fill:rgb(248,221,215);stroke:rgb(229,194,173);stroke-width:0.97px;"/>
                            </g>
                            <g transform="matrix(1.20591,0,0,0.775888,393.031,34.8998)">
                                <path d="M231.129,152.355C231.129,151.654 230.95,150.981 230.631,150.485C230.312,149.989 229.879,149.71 229.427,149.71C220.963,149.71 183.463,149.71 174.998,149.71C174.547,149.71 174.114,149.989 173.795,150.485C173.476,150.981 173.297,151.654 173.297,152.355C173.297,162.004 173.297,195.249 173.297,204.898C173.297,205.599 173.476,206.272 173.795,206.768C174.114,207.264 174.547,207.543 174.998,207.543C183.463,207.543 220.963,207.543 229.427,207.543C229.879,207.543 230.312,207.264 230.631,206.768C230.95,206.272 231.129,205.599 231.129,204.898C231.129,195.249 231.129,162.004 231.129,152.355Z" style="fill:rgb(248,221,215);stroke:rgb(229,194,173);stroke-width:0.99px;"/>
                            </g>
                        </g>
                        <g transform="matrix(1,0,0,1,0,273.136)">
                            <g transform="matrix(1.22729,0,0,0.775888,-38.6282,34.8998)">
                                <path d="M231.129,152.355C231.129,151.654 230.953,150.981 230.639,150.485C230.326,149.989 229.901,149.71 229.457,149.71C221.041,149.71 183.385,149.71 174.969,149.71C174.525,149.71 174.1,149.989 173.786,150.485C173.473,150.981 173.297,151.654 173.297,152.355C173.297,162.004 173.297,195.249 173.297,204.898C173.297,205.599 173.473,206.272 173.786,206.768C174.1,207.264 174.525,207.543 174.969,207.543C183.385,207.543 221.041,207.543 229.457,207.543C229.901,207.543 230.326,207.264 230.639,206.768C230.953,206.272 231.129,205.599 231.129,204.898C231.129,195.249 231.129,162.004 231.129,152.355Z" style="fill:rgb(248,221,215);stroke:rgb(229,194,173);stroke-width:0.97px;"/>
                            </g>
                            <g transform="matrix(1.22729,0,0,0.775888,32.7217,34.8998)">
                                <path d="M231.129,152.355C231.129,151.654 230.953,150.981 230.639,150.485C230.326,149.989 229.901,149.71 229.457,149.71C221.041,149.71 183.385,149.71 174.969,149.71C174.525,149.71 174.1,149.989 173.786,150.485C173.473,150.981 173.297,151.654 173.297,152.355C173.297,162.004 173.297,195.249 173.297,204.898C173.297,205.599 173.473,206.272 173.786,206.768C174.1,207.264 174.525,207.543 174.969,207.543C183.385,207.543 221.041,207.543 229.457,207.543C229.901,207.543 230.326,207.264 230.639,206.768C230.953,206.272 231.129,205.599 231.129,204.898C231.129,195.249 231.129,162.004 231.129,152.355Z" style="fill:rgb(248,221,215);stroke:rgb(229,194,173);stroke-width:0.97px;"/>
                            </g>
                            <g transform="matrix(1.22729,0,0,0.775888,103.7,34.8998)">
                                <path d="M231.129,152.355C231.129,151.654 230.953,150.981 230.639,150.485C230.326,149.989 229.901,149.71 229.457,149.71C221.041,149.71 183.385,149.71 174.969,149.71C174.525,149.71 174.1,149.989 173.786,150.485C173.473,150.981 173.297,151.654 173.297,152.355C173.297,162.004 173.297,195.249 173.297,204.898C173.297,205.599 173.473,206.272 173.786,206.768C174.1,207.264 174.525,207.543 174.969,207.543C183.385,207.543 221.041,207.543 229.457,207.543C229.901,207.543 230.326,207.264 230.639,206.768C230.953,206.272 231.129,205.599 231.129,204.898C231.129,195.249 231.129,162.004 231.129,152.355Z" style="fill:rgb(248,221,215);stroke:rgb(229,194,173);stroke-width:0.97px;"/>
                            </g>
                            <g transform="matrix(1.22729,0,0,0.775888,175.392,34.8998)">
                                <path d="M231.129,152.355C231.129,151.654 230.953,150.981 230.639,150.485C230.326,149.989 229.901,149.71 229.457,149.71C221.041,149.71 183.385,149.71 174.969,149.71C174.525,149.71 174.1,149.989 173.786,150.485C173.473,150.981 173.297,151.654 173.297,152.355C173.297,162.004 173.297,195.249 173.297,204.898C173.297,205.599 173.473,206.272 173.786,206.768C174.1,207.264 174.525,207.543 174.969,207.543C183.385,207.543 221.041,207.543 229.457,207.543C229.901,207.543 230.326,207.264 230.639,206.768C230.953,206.272 231.129,205.599 231.129,204.898C231.129,195.249 231.129,162.004 231.129,152.355Z" style="fill:rgb(248,221,215);stroke:rgb(229,194,173);stroke-width:0.97px;"/>
                            </g>
                            <g transform="matrix(1.22729,0,0,0.775888,246.37,34.8998)">
                                <path d="M231.129,152.355C231.129,151.654 230.953,150.981 230.639,150.485C230.326,149.989 229.901,149.71 229.457,149.71C221.041,149.71 183.385,149.71 174.969,149.71C174.525,149.71 174.1,149.989 173.786,150.485C173.473,150.981 173.297,151.654 173.297,152.355C173.297,162.004 173.297,195.249 173.297,204.898C173.297,205.599 173.473,206.272 173.786,206.768C174.1,207.264 174.525,207.543 174.969,207.543C183.385,207.543 221.041,207.543 229.457,207.543C229.901,207.543 230.326,207.264 230.639,206.768C230.953,206.272 231.129,205.599 231.129,204.898C231.129,195.249 231.129,162.004 231.129,152.355Z" style="fill:rgb(248,221,215);stroke:rgb(229,194,173);stroke-width:0.97px;"/>
                            </g>
                            <g transform="matrix(1.22729,0,0,0.775888,317.348,34.8998)">
                                <path d="M231.129,152.355C231.129,151.654 230.953,150.981 230.639,150.485C230.326,149.989 229.901,149.71 229.457,149.71C221.041,149.71 183.385,149.71 174.969,149.71C174.525,149.71 174.1,149.989 173.786,150.485C173.473,150.981 173.297,151.654 173.297,152.355C173.297,162.004 173.297,195.249 173.297,204.898C173.297,205.599 173.473,206.272 173.786,206.768C174.1,207.264 174.525,207.543 174.969,207.543C183.385,207.543 221.041,207.543 229.457,207.543C229.901,207.543 230.326,207.264 230.639,206.768C230.953,206.272 231.129,205.599 231.129,204.898C231.129,195.249 231.129,162.004 231.129,152.355Z" style="fill:rgb(248,221,215);stroke:rgb(229,194,173);stroke-width:0.97px;"/>
                            </g>
                            <g transform="matrix(1.20591,0,0,0.775888,393.031,34.8998)">
                                <path d="M231.129,152.355C231.129,151.654 230.95,150.981 230.631,150.485C230.312,149.989 229.879,149.71 229.427,149.71C220.963,149.71 183.463,149.71 174.998,149.71C174.547,149.71 174.114,149.989 173.795,150.485C173.476,150.981 173.297,151.654 173.297,152.355C173.297,162.004 173.297,195.249 173.297,204.898C173.297,205.599 173.476,206.272 173.795,206.768C174.114,207.264 174.547,207.543 174.998,207.543C183.463,207.543 220.963,207.543 229.427,207.543C229.879,207.543 230.312,207.264 230.631,206.768C230.95,206.272 231.129,205.599 231.129,204.898C231.129,195.249 231.129,162.004 231.129,152.355Z" style="fill:rgb(248,221,215);stroke:rgb(229,194,173);stroke-width:0.99px;"/>
                            </g>
                        </g>
                    </g>
                    <g id="_5" serif:id="5" transform="matrix(1,0,0,1,352.035,79.0287)">
                        <path d="M262.394,234.881C260.632,231.852 260.665,228.702 261.534,225.028C266.404,228.651 268.05,232.557 269.977,236.328C271.896,240.085 274.095,243.707 280.04,246.782L280.11,246.818C279.28,247.052 278.438,247.245 277.587,247.388C276.759,247.527 275.923,247.619 275.085,247.662L275.066,247.662C275.197,247.698 275.328,247.735 275.459,247.773C278.644,248.684 281.691,250.014 286.489,251.02C279.697,252.015 264.046,247.345 263.606,247.04C265.231,246.836 266.669,246.74 267.973,246.73C258.122,243.557 252.885,233.546 253.031,232.888C257.026,233.499 260.042,234.163 262.394,234.881ZM293.999,246.819C293.568,247.008 293.128,247.198 292.679,247.389C298.676,244.307 300.885,240.671 302.812,236.9C304.739,233.129 306.385,229.223 311.255,225.6C312.141,229.346 312.158,232.547 310.289,235.631C312.678,234.5 315.855,233.32 320.387,232.019C320.529,232.659 315.938,242.583 306.813,246.28C308.472,246.297 310.231,246.415 312.135,246.654C311.638,247.959 295.175,252.095 286.111,250.906C290.097,249.537 293.513,248.302 296.978,247.453C296.013,247.316 295.021,247.108 293.999,246.819Z" style="fill:rgb(4,0,61);"/>
                        <g transform="matrix(0.381295,0,0,0.381295,74.3876,92.7151)">
                            <circle cx="555.324" cy="360.027" r="55.501" style="fill:rgb(45,41,108);"/>
                        </g>
                        <g transform="matrix(1.18978,0,0,1.17635,-390.065,-186.046)">
                            <text x="559.982px" y="363.62px" style="font-family:'ArialRoundedMTBold', 'Arial Rounded MT Bold', sans-serif;font-size:26.913px;fill:white;">5</text>
                        </g>
                    </g>
                    <g id="_6" serif:id="6" transform="matrix(1,0,0,1,-77.3997,76.8513)">
                        <path d="M262.394,234.881C260.632,231.852 260.665,228.702 261.534,225.028C266.404,228.651 268.05,232.557 269.977,236.328C271.896,240.085 274.095,243.707 280.04,246.782L280.11,246.818C279.28,247.052 278.438,247.245 277.587,247.388C276.759,247.527 275.923,247.619 275.085,247.662L275.066,247.662C275.197,247.698 275.328,247.735 275.459,247.773C278.644,248.684 281.691,250.014 286.489,251.02C279.697,252.015 264.046,247.345 263.606,247.04C265.231,246.836 266.669,246.74 267.973,246.73C258.122,243.557 252.885,233.546 253.031,232.888C257.026,233.499 260.042,234.163 262.394,234.881ZM293.999,246.819C293.568,247.008 293.128,247.198 292.679,247.389C298.676,244.307 300.885,240.671 302.812,236.9C304.739,233.129 306.385,229.223 311.255,225.6C312.141,229.346 312.158,232.547 310.289,235.631C312.678,234.5 315.855,233.32 320.387,232.019C320.529,232.659 315.938,242.583 306.813,246.28C308.472,246.297 310.231,246.415 312.135,246.654C311.638,247.959 295.175,252.095 286.111,250.906C290.097,249.537 293.513,248.302 296.978,247.453C296.013,247.316 295.021,247.108 293.999,246.819Z" style="fill:rgb(4,0,61);"/>
                        <g transform="matrix(0.381295,0,0,0.381295,74.3876,92.7151)">
                            <circle cx="555.324" cy="360.027" r="55.501" style="fill:rgb(45,41,108);"/>
                        </g>
                        <g transform="matrix(1.18978,0,0,1.17635,-390.065,-186.046)">
                            <text x="559.982px" y="363.62px" style="font-family:'ArialRoundedMTBold', 'Arial Rounded MT Bold', sans-serif;font-size:26.913px;fill:white;">6</text>
                        </g>
                    </g>
                    <g>
                        <g id="_1" serif:id="1" transform="matrix(1.00056,0,0,1,278.808,-57.5227)">
                            <path d="M262.394,234.881C260.632,231.852 260.665,228.702 261.534,225.028C266.404,228.651 268.05,232.557 269.977,236.328C271.896,240.085 274.095,243.707 280.04,246.782L280.11,246.818C279.28,247.052 278.438,247.245 277.587,247.388C276.759,247.527 275.923,247.619 275.085,247.662L275.066,247.662C275.197,247.698 275.328,247.735 275.459,247.773C278.644,248.684 281.691,250.014 286.489,251.02C279.697,252.015 264.046,247.345 263.606,247.04C265.231,246.836 266.669,246.74 267.973,246.73C258.122,243.557 252.885,233.546 253.031,232.888C257.026,233.499 260.042,234.163 262.394,234.881ZM293.999,246.819C293.568,247.008 293.128,247.198 292.679,247.389C298.676,244.307 300.885,240.671 302.812,236.9C304.739,233.129 306.385,229.223 311.255,225.6C312.141,229.346 312.158,232.547 310.289,235.631C312.678,234.5 315.855,233.32 320.387,232.019C320.529,232.659 315.938,242.583 306.813,246.28C308.472,246.297 310.231,246.415 312.135,246.654C311.638,247.959 295.175,252.095 286.111,250.906C290.097,249.537 293.513,248.302 296.978,247.453C296.013,247.316 295.021,247.108 293.999,246.819Z" style="fill:rgb(0,64,111);"/>
                            <g transform="matrix(0.381295,0,0,0.381295,74.3876,92.7151)">
                                <circle cx="555.324" cy="360.027" r="55.501" style="fill:rgb(0,124,177);"/>
                            </g>
                            <g transform="matrix(1.18978,0,0,1.17635,-390.065,-186.046)">
                                <text x="559.982px" y="363.62px" style="font-family:'ArialRoundedMTBold', 'Arial Rounded MT Bold', sans-serif;font-size:26.913px;fill:white;">1</text>
                            </g>
                        </g>
                        <g id="_2" serif:id="2" transform="matrix(1,0,0,1,138.882,-13.149)">
                            <path d="M262.394,234.881C260.632,231.852 260.665,228.702 261.534,225.028C266.404,228.651 268.05,232.557 269.977,236.328C271.896,240.085 274.095,243.707 280.04,246.782L280.11,246.818C279.28,247.052 278.438,247.245 277.587,247.388C276.759,247.527 275.923,247.619 275.085,247.662L275.066,247.662C275.197,247.698 275.328,247.735 275.459,247.773C278.644,248.684 281.691,250.014 286.489,251.02C279.697,252.015 264.046,247.345 263.606,247.04C265.231,246.836 266.669,246.74 267.973,246.73C258.122,243.557 252.885,233.546 253.031,232.888C257.026,233.499 260.042,234.163 262.394,234.881ZM293.999,246.819C293.568,247.008 293.128,247.198 292.679,247.389C298.676,244.307 300.885,240.671 302.812,236.9C304.739,233.129 306.385,229.223 311.255,225.6C312.141,229.346 312.158,232.547 310.289,235.631C312.678,234.5 315.855,233.32 320.387,232.019C320.529,232.659 315.938,242.583 306.813,246.28C308.472,246.297 310.231,246.415 312.135,246.654C311.638,247.959 295.175,252.095 286.111,250.906C290.097,249.537 293.513,248.302 296.978,247.453C296.013,247.316 295.021,247.108 293.999,246.819Z" style="fill:rgb(4,0,61);"/>
                            <g transform="matrix(0.381295,0,0,0.381295,74.3876,92.7151)">
                                <circle cx="555.324" cy="360.027" r="55.501" style="fill:rgb(45,41,108);"/>
                            </g>
                            <g transform="matrix(1.18978,0,0,1.17635,-390.065,-186.046)">
                                <text x="559.982px" y="363.62px" style="font-family:'ArialRoundedMTBold', 'Arial Rounded MT Bold', sans-serif;font-size:26.913px;fill:white;">2</text>
                            </g>
                        </g>
                        <g id="_21" serif:id="2" transform="matrix(1,0,0,1,280.414,32.577)">
                            <path d="M262.394,234.881C260.632,231.852 260.665,228.702 261.534,225.028C266.404,228.651 268.05,232.557 269.977,236.328C271.896,240.085 274.095,243.707 280.04,246.782L280.11,246.818C279.28,247.052 278.438,247.245 277.587,247.388C276.759,247.527 275.923,247.619 275.085,247.662L275.066,247.662C275.197,247.698 275.328,247.735 275.459,247.773C278.644,248.684 281.691,250.014 286.489,251.02C279.697,252.015 264.046,247.345 263.606,247.04C265.231,246.836 266.669,246.74 267.973,246.73C258.122,243.557 252.885,233.546 253.031,232.888C257.026,233.499 260.042,234.163 262.394,234.881ZM293.999,246.819C293.568,247.008 293.128,247.198 292.679,247.389C298.676,244.307 300.885,240.671 302.812,236.9C304.739,233.129 306.385,229.223 311.255,225.6C312.141,229.346 312.158,232.547 310.289,235.631C312.678,234.5 315.855,233.32 320.387,232.019C320.529,232.659 315.938,242.583 306.813,246.28C308.472,246.297 310.231,246.415 312.135,246.654C311.638,247.959 295.175,252.095 286.111,250.906C290.097,249.537 293.513,248.302 296.978,247.453C296.013,247.316 295.021,247.108 293.999,246.819Z" style="fill:rgb(4,0,61);"/>
                            <g transform="matrix(0.381295,0,0,0.381295,74.3876,92.7151)">
                                <circle cx="555.324" cy="360.027" r="55.501" style="fill:rgb(45,41,108);"/>
                            </g>
                            <g transform="matrix(1.18978,0,0,1.17635,-390.065,-186.046)">
                                <text x="559.982px" y="363.62px" style="font-family:'ArialRoundedMTBold', 'Arial Rounded MT Bold', sans-serif;font-size:26.913px;fill:white;">2</text>
                            </g>
                        </g>
                        <g id="_3" serif:id="3" transform="matrix(1,0,0,1,352.035,-13.149)">
                            <path d="M262.394,234.881C260.632,231.852 260.665,228.702 261.534,225.028C266.404,228.651 268.05,232.557 269.977,236.328C271.896,240.085 274.095,243.707 280.04,246.782L280.11,246.818C279.28,247.052 278.438,247.245 277.587,247.388C276.759,247.527 275.923,247.619 275.085,247.662L275.066,247.662C275.197,247.698 275.328,247.735 275.459,247.773C278.644,248.684 281.691,250.014 286.489,251.02C279.697,252.015 264.046,247.345 263.606,247.04C265.231,246.836 266.669,246.74 267.973,246.73C258.122,243.557 252.885,233.546 253.031,232.888C257.026,233.499 260.042,234.163 262.394,234.881ZM293.999,246.819C293.568,247.008 293.128,247.198 292.679,247.389C298.676,244.307 300.885,240.671 302.812,236.9C304.739,233.129 306.385,229.223 311.255,225.6C312.141,229.346 312.158,232.547 310.289,235.631C312.678,234.5 315.855,233.32 320.387,232.019C320.529,232.659 315.938,242.583 306.813,246.28C308.472,246.297 310.231,246.415 312.135,246.654C311.638,247.959 295.175,252.095 286.111,250.906C290.097,249.537 293.513,248.302 296.978,247.453C296.013,247.316 295.021,247.108 293.999,246.819Z" style="fill:rgb(4,0,61);"/>
                            <g transform="matrix(0.381295,0,0,0.381295,74.3876,92.7151)">
                                <circle cx="555.324" cy="360.027" r="55.501" style="fill:rgb(45,41,108);"/>
                            </g>
                            <g transform="matrix(1.18978,0,0,1.17635,-390.065,-186.046)">
                                <text x="559.982px" y="363.62px" style="font-family:'ArialRoundedMTBold', 'Arial Rounded MT Bold', sans-serif;font-size:26.913px;fill:white;">3</text>
                            </g>
                        </g>
                        <g id="_31" serif:id="3" transform="matrix(1,0,0,1,65.5797,32.577)">
                            <path d="M262.394,234.881C260.632,231.852 260.665,228.702 261.534,225.028C266.404,228.651 268.05,232.557 269.977,236.328C271.896,240.085 274.095,243.707 280.04,246.782L280.11,246.818C279.28,247.052 278.438,247.245 277.587,247.388C276.759,247.527 275.923,247.619 275.085,247.662L275.066,247.662C275.197,247.698 275.328,247.735 275.459,247.773C278.644,248.684 281.691,250.014 286.489,251.02C279.697,252.015 264.046,247.345 263.606,247.04C265.231,246.836 266.669,246.74 267.973,246.73C258.122,243.557 252.885,233.546 253.031,232.888C257.026,233.499 260.042,234.163 262.394,234.881ZM293.999,246.819C293.568,247.008 293.128,247.198 292.679,247.389C298.676,244.307 300.885,240.671 302.812,236.9C304.739,233.129 306.385,229.223 311.255,225.6C312.141,229.346 312.158,232.547 310.289,235.631C312.678,234.5 315.855,233.32 320.387,232.019C320.529,232.659 315.938,242.583 306.813,246.28C308.472,246.297 310.231,246.415 312.135,246.654C311.638,247.959 295.175,252.095 286.111,250.906C290.097,249.537 293.513,248.302 296.978,247.453C296.013,247.316 295.021,247.108 293.999,246.819Z" style="fill:rgb(0,64,111);"/>
                            <g transform="matrix(0.381295,0,0,0.381295,74.3876,92.7151)">
                                <circle cx="555.324" cy="360.027" r="55.501" style="fill:rgb(0,124,177);"/>
                            </g>
                            <g transform="matrix(1.18978,0,0,1.17635,-390.065,-186.046)">
                                <text x="559.982px" y="363.62px" style="font-family:'ArialRoundedMTBold', 'Arial Rounded MT Bold', sans-serif;font-size:26.913px;fill:white;">3</text>
                            </g>
                        </g>
                        <g id="_4" serif:id="4" transform="matrix(0.972745,0,0,0.972745,-70.5035,-51.3038)">
                            <path d="M262.394,234.881C260.632,231.852 260.665,228.702 261.534,225.028C266.404,228.651 268.05,232.557 269.977,236.328C271.896,240.085 274.095,243.707 280.04,246.782L280.11,246.818C279.28,247.052 278.438,247.245 277.587,247.388C276.759,247.527 275.923,247.619 275.085,247.662L275.066,247.662C275.197,247.698 275.328,247.735 275.459,247.773C278.644,248.684 281.691,250.014 286.489,251.02C279.697,252.015 264.046,247.345 263.606,247.04C265.231,246.836 266.669,246.74 267.973,246.73C258.122,243.557 252.885,233.546 253.031,232.888C257.026,233.499 260.042,234.163 262.394,234.881ZM293.999,246.819C293.568,247.008 293.128,247.198 292.679,247.389C298.676,244.307 300.885,240.671 302.812,236.9C304.739,233.129 306.385,229.223 311.255,225.6C312.141,229.346 312.158,232.547 310.289,235.631C312.678,234.5 315.855,233.32 320.387,232.019C320.529,232.659 315.938,242.583 306.813,246.28C308.472,246.297 310.231,246.415 312.135,246.654C311.638,247.959 295.175,252.095 286.111,250.906C290.097,249.537 293.513,248.302 296.978,247.453C296.013,247.316 295.021,247.108 293.999,246.819Z" style="fill:rgb(0,64,111);"/>
                            <g transform="matrix(0.381295,0,0,0.381295,74.3876,92.7151)">
                                <circle cx="555.324" cy="360.027" r="55.501" style="fill:rgb(0,124,177);"/>
                            </g>
                            <g transform="matrix(1.18978,0,0,1.17635,-390.065,-186.046)">
                                <text x="559.982px" y="363.62px" style="font-family:'ArialRoundedMTBold', 'Arial Rounded MT Bold', sans-serif;font-size:26.913px;fill:white;">4</text>
                            </g>
                        </g>
                        <g id="_41" serif:id="4" transform="matrix(1,0,0,1,-77.3997,216.207)">
                            <path d="M262.394,234.881C260.632,231.852 260.665,228.702 261.534,225.028C266.404,228.651 268.05,232.557 269.977,236.328C271.896,240.085 274.095,243.707 280.04,246.782L280.11,246.818C279.28,247.052 278.438,247.245 277.587,247.388C276.759,247.527 275.923,247.619 275.085,247.662L275.066,247.662C275.197,247.698 275.328,247.735 275.459,247.773C278.644,248.684 281.691,250.014 286.489,251.02C279.697,252.015 264.046,247.345 263.606,247.04C265.231,246.836 266.669,246.74 267.973,246.73C258.122,243.557 252.885,233.546 253.031,232.888C257.026,233.499 260.042,234.163 262.394,234.881ZM293.999,246.819C293.568,247.008 293.128,247.198 292.679,247.389C298.676,244.307 300.885,240.671 302.812,236.9C304.739,233.129 306.385,229.223 311.255,225.6C312.141,229.346 312.158,232.547 310.289,235.631C312.678,234.5 315.855,233.32 320.387,232.019C320.529,232.659 315.938,242.583 306.813,246.28C308.472,246.297 310.231,246.415 312.135,246.654C311.638,247.959 295.175,252.095 286.111,250.906C290.097,249.537 293.513,248.302 296.978,247.453C296.013,247.316 295.021,247.108 293.999,246.819Z" style="fill:rgb(4,0,61);"/>
                            <g transform="matrix(0.381295,0,0,0.381295,74.3876,92.7151)">
                                <circle cx="555.324" cy="360.027" r="55.501" style="fill:rgb(45,41,108);"/>
                            </g>
                            <g transform="matrix(1.18978,0,0,1.17635,-390.065,-186.046)">
                                <text x="559.982px" y="363.62px" style="font-family:'ArialRoundedMTBold', 'Arial Rounded MT Bold', sans-serif;font-size:26.913px;fill:white;">4</text>
                            </g>
                        </g>
                        <g id="_42" serif:id="4" transform="matrix(1,0,0,1,352.035,215.481)">
                            <path d="M262.394,234.881C260.632,231.852 260.665,228.702 261.534,225.028C266.404,228.651 268.05,232.557 269.977,236.328C271.896,240.085 274.095,243.707 280.04,246.782L280.11,246.818C279.28,247.052 278.438,247.245 277.587,247.388C276.759,247.527 275.923,247.619 275.085,247.662L275.066,247.662C275.197,247.698 275.328,247.735 275.459,247.773C278.644,248.684 281.691,250.014 286.489,251.02C279.697,252.015 264.046,247.345 263.606,247.04C265.231,246.836 266.669,246.74 267.973,246.73C258.122,243.557 252.885,233.546 253.031,232.888C257.026,233.499 260.042,234.163 262.394,234.881ZM293.999,246.819C293.568,247.008 293.128,247.198 292.679,247.389C298.676,244.307 300.885,240.671 302.812,236.9C304.739,233.129 306.385,229.223 311.255,225.6C312.141,229.346 312.158,232.547 310.289,235.631C312.678,234.5 315.855,233.32 320.387,232.019C320.529,232.659 315.938,242.583 306.813,246.28C308.472,246.297 310.231,246.415 312.135,246.654C311.638,247.959 295.175,252.095 286.111,250.906C290.097,249.537 293.513,248.302 296.978,247.453C296.013,247.316 295.021,247.108 293.999,246.819Z" style="fill:rgb(4,0,61);"/>
                            <g transform="matrix(0.381295,0,0,0.381295,74.3876,92.7151)">
                                <circle cx="555.324" cy="360.027" r="55.501" style="fill:rgb(45,41,108);"/>
                            </g>
                            <g transform="matrix(1.18978,0,0,1.17635,-390.065,-186.046)">
                                <text x="559.982px" y="363.62px" style="font-family:'ArialRoundedMTBold', 'Arial Rounded MT Bold', sans-serif;font-size:26.913px;fill:white;">4</text>
                            </g>
                        </g>
                        <g id="_43" serif:id="4" transform="matrix(1,0,0,1,65.5797,-58.1491)">
                            <path d="M262.394,234.881C260.632,231.852 260.665,228.702 261.534,225.028C266.404,228.651 268.05,232.557 269.977,236.328C271.896,240.085 274.095,243.707 280.04,246.782L280.11,246.818C279.28,247.052 278.438,247.245 277.587,247.388C276.759,247.527 275.923,247.619 275.085,247.662L275.066,247.662C275.197,247.698 275.328,247.735 275.459,247.773C278.644,248.684 281.691,250.014 286.489,251.02C279.697,252.015 264.046,247.345 263.606,247.04C265.231,246.836 266.669,246.74 267.973,246.73C258.122,243.557 252.885,233.546 253.031,232.888C257.026,233.499 260.042,234.163 262.394,234.881ZM293.999,246.819C293.568,247.008 293.128,247.198 292.679,247.389C298.676,244.307 300.885,240.671 302.812,236.9C304.739,233.129 306.385,229.223 311.255,225.6C312.141,229.346 312.158,232.547 310.289,235.631C312.678,234.5 315.855,233.32 320.387,232.019C320.529,232.659 315.938,242.583 306.813,246.28C308.472,246.297 310.231,246.415 312.135,246.654C311.638,247.959 295.175,252.095 286.111,250.906C290.097,249.537 293.513,248.302 296.978,247.453C296.013,247.316 295.021,247.108 293.999,246.819Z" style="fill:rgb(4,0,61);"/>
                            <g transform="matrix(0.381295,0,0,0.381295,74.3876,92.7151)">
                                <circle cx="555.324" cy="360.027" r="55.501" style="fill:rgb(45,41,108);"/>
                            </g>
                            <g transform="matrix(1.18978,0,0,1.17635,-390.065,-186.046)">
                                <text x="559.982px" y="363.62px" style="font-family:'ArialRoundedMTBold', 'Arial Rounded MT Bold', sans-serif;font-size:26.913px;fill:white;">4</text>
                            </g>
                        </g>
                    </g>
                </g>
                <g transform="matrix(1.2704,0,0,0.803738,-325.173,-97.2663)">
                    <g opacity="0.58">
                        <g transform="matrix(-0.989748,1.0852e-16,-1.21209e-16,-0.886137,882.68,400.716)">
                            <g transform="matrix(6.12323e-17,-1,1,6.12323e-17,156.79,557.233)">
                                <g transform="matrix(0.853522,0,0,1,54.3437,0)">
                                    <g transform="matrix(0.734321,0,0,0.501954,107.121,104.838)">
                                        <rect x="355.588" y="180.392" width="7.533" height="36.95" style="fill:rgb(45,41,108);"/>
                                    </g>
                                    <g transform="matrix(0.734321,0,0,0.501954,107.121,125.743)">
                                        <rect x="355.588" y="180.392" width="7.533" height="36.95" style="fill:rgb(4,0,61);"/>
                                    </g>
                                    <g transform="matrix(0.734321,0,0,0.501954,107.121,146.869)">
                                        <rect x="355.588" y="180.392" width="7.533" height="36.95" style="fill:rgb(45,41,108);"/>
                                    </g>
                                </g>
                                <g transform="matrix(0.714419,0,0,0.714419,105.85,66.4389)">
                                    <path d="M376.108,227.253C381.469,225.72 387.265,221.009 388.431,215.979C382.706,215.783 377.725,219.235 376.108,227.253Z" style="fill:rgb(45,41,108);"/>
                                </g>
                                <g transform="matrix(0.266744,0.662754,-0.662754,0.266744,425.593,-80.465)">
                                    <path d="M376.108,227.253C381.469,225.72 387.265,221.009 388.431,215.979C382.706,215.783 377.725,219.235 376.108,227.253Z" style="fill:rgb(4,0,61);"/>
                                </g>
                            </g>
                            <g transform="matrix(6.12323e-17,1,1,-6.12323e-17,156.79,-176.916)">
                                <g transform="matrix(0.853522,0,0,1,54.3437,0)">
                                    <g transform="matrix(0.734321,0,0,0.501954,107.121,104.838)">
                                        <rect x="355.588" y="180.392" width="7.533" height="36.95" style="fill:rgb(4,0,61);"/>
                                    </g>
                                    <g transform="matrix(0.734321,0,0,0.501954,107.121,125.743)">
                                        <rect x="355.588" y="180.392" width="7.533" height="36.95" style="fill:rgb(45,41,108);"/>
                                    </g>
                                    <g transform="matrix(0.734321,0,0,0.501954,107.121,146.869)">
                                        <rect x="355.588" y="180.392" width="7.533" height="36.95" style="fill:rgb(4,0,61);"/>
                                    </g>
                                </g>
                                <g transform="matrix(0.714419,0,0,0.714419,106.784,60.1319)">
                                    <path d="M376.108,227.253C381.469,225.72 387.265,221.009 388.431,215.979C382.706,215.783 377.725,219.235 376.108,227.253Z" style="fill:rgb(4,0,61);"/>
                                </g>
                                <g transform="matrix(-0.217875,0.680386,-0.680386,-0.217875,611.252,22.7616)">
                                    <path d="M376.108,227.253C381.469,225.72 387.265,221.009 388.431,215.979C382.706,215.783 377.725,219.235 376.108,227.253Z" style="fill:rgb(45,41,108);"/>
                                </g>
                            </g>
                        </g>
                        <g transform="matrix(1.84599,0,0,1.72277,-279.336,-319.12)">
                            <rect x="408.165" y="304.431" width="32.503" height="31.055" style="fill:none;"/>
                        </g>
                    </g>
                </g>
                <g transform="matrix(1,0,0,1.14294,-193.16,-222.942)">
                    <g opacity="0.58">
                        <g transform="matrix(0.957149,-6.94011e-18,-1.11365e-17,0.709825,75.0026,155.872)">
                            <g>
                                <g transform="matrix(0.853522,0,0,1,54.3437,0)">
                                    <g transform="matrix(0.734321,0,0,0.501954,107.121,104.838)">
                                        <rect x="355.588" y="180.392" width="7.533" height="36.95" style="fill:rgb(45,41,108);"/>
                                    </g>
                                    <g transform="matrix(0.734321,0,0,0.501954,107.121,125.743)">
                                        <rect x="355.588" y="180.392" width="7.533" height="36.95" style="fill:rgb(4,0,61);"/>
                                    </g>
                                    <g transform="matrix(0.734321,0,0,0.501954,107.121,146.869)">
                                        <rect x="355.588" y="180.392" width="7.533" height="36.95" style="fill:rgb(45,41,108);"/>
                                    </g>
                                </g>
                                <g transform="matrix(0.584358,0,0,0.536845,156.448,103.894)">
                                    <path d="M376.108,227.253C381.469,225.72 387.265,221.009 388.431,215.979C382.706,215.783 377.725,219.235 376.108,227.253Z" style="fill:rgb(4,0,61);"/>
                                </g>
                                <g transform="matrix(0.104242,-0.706773,0.706773,0.104242,168.093,467.543)">
                                    <path d="M376.108,227.253C381.469,225.72 387.265,221.009 388.431,215.979C382.706,215.783 377.725,219.235 376.108,227.253Z" style="fill:rgb(45,41,108);"/>
                                </g>
                                <g transform="matrix(-0.208571,0.683296,-0.683296,-0.208571,609.919,16.3911)">
                                    <path d="M376.108,227.253C381.469,225.72 387.265,221.009 388.431,215.979C382.706,215.783 377.725,219.235 376.108,227.253Z" style="fill:rgb(45,41,108);"/>
                                </g>
                            </g>
                        </g>
                        <g transform="matrix(1.29322,0,0,0.857574,104.32,91.6224)">
                            <rect x="226.17" y="236.644" width="53.355" height="50.141" style="fill:none;"/>
                        </g>
                    </g>
                </g>
                <g transform="matrix(1,0,0,1.11928,-193.16,-166.378)">
                    <g opacity="0.58">
                        <g transform="matrix(0.957149,-6.94011e-18,-1.11365e-17,0.709825,75.0026,155.872)">
                            <g>
                                <g transform="matrix(0.853522,0,0,1,54.3437,0)">
                                    <g transform="matrix(0.734321,0,0,0.501954,107.121,104.838)">
                                        <rect x="355.588" y="180.392" width="7.533" height="36.95" style="fill:rgb(45,41,108);"/>
                                    </g>
                                    <g transform="matrix(0.734321,0,0,0.501954,107.121,125.743)">
                                        <rect x="355.588" y="180.392" width="7.533" height="36.95" style="fill:rgb(4,0,61);"/>
                                    </g>
                                    <g transform="matrix(0.734321,0,0,0.501954,107.121,146.869)">
                                        <rect x="355.588" y="180.392" width="7.533" height="36.95" style="fill:rgb(45,41,108);"/>
                                    </g>
                                </g>
                                <g transform="matrix(0.584358,0,0,0.536845,156.448,103.894)">
                                    <path d="M376.108,227.253C381.469,225.72 387.265,221.009 388.431,215.979C382.706,215.783 377.725,219.235 376.108,227.253Z" style="fill:rgb(4,0,61);"/>
                                </g>
                                <g transform="matrix(0.104242,-0.706773,0.706773,0.104242,168.093,467.543)">
                                    <path d="M376.108,227.253C381.469,225.72 387.265,221.009 388.431,215.979C382.706,215.783 377.725,219.235 376.108,227.253Z" style="fill:rgb(45,41,108);"/>
                                </g>
                                <g transform="matrix(-0.208571,0.683296,-0.683296,-0.208571,609.919,16.3911)">
                                    <path d="M376.108,227.253C381.469,225.72 387.265,221.009 388.431,215.979C382.706,215.783 377.725,219.235 376.108,227.253Z" style="fill:rgb(45,41,108);"/>
                                </g>
                            </g>
                        </g>
                        <g transform="matrix(1.29322,0,0,0.857574,104.32,91.6224)">
                            <rect x="226.17" y="236.644" width="53.355" height="50.141" style="fill:none;"/>
                        </g>
                    </g>
                </g>
                <g transform="matrix(0.527134,0,0,1,136.807,30.5993)">
                    <path d="M35.7,147.081C32.932,147.081 30.278,146.502 28.32,145.47C26.363,144.438 25.264,143.039 25.264,141.58C25.264,135.79 25.264,126.73 25.264,120.94C25.264,119.481 26.363,118.082 28.32,117.05C30.278,116.019 32.932,115.439 35.7,115.439C53.224,115.439 87.765,115.439 99.184,115.439C100.183,115.439 101.14,115.23 101.846,114.858C102.552,114.486 102.948,113.981 102.948,113.455C102.948,113.454 102.948,113.452 102.948,113.451C102.948,112.533 103.996,111.706 105.604,111.355C107.212,111.004 109.063,111.198 110.293,111.847C118.456,116.15 131.564,123.059 139.741,127.37C141.698,128.402 142.798,129.801 142.798,131.26C142.798,132.719 141.698,134.119 139.741,135.15C131.564,139.461 118.456,146.37 110.293,150.673C109.063,151.322 107.212,151.516 105.604,151.165C103.996,150.814 102.948,149.987 102.948,149.069C102.948,149.068 102.948,149.067 102.948,149.065C102.948,148.539 102.552,148.035 101.846,147.662C101.14,147.29 100.183,147.081 99.184,147.081C87.765,147.081 53.224,147.081 35.7,147.081Z" style="fill:rgb(205,70,72);"/>
                </g>
                <g transform="matrix(3.22776e-17,0.527134,-1,6.12323e-17,445.377,-0.92569)">
                    <path d="M35.7,147.081C32.932,147.081 30.278,146.502 28.32,145.47C26.363,144.438 25.264,143.039 25.264,141.58C25.264,135.79 25.264,126.73 25.264,120.94C25.264,119.481 26.363,118.082 28.32,117.05C30.278,116.019 32.932,115.439 35.7,115.439C53.224,115.439 87.765,115.439 99.184,115.439C100.183,115.439 101.14,115.23 101.846,114.858C102.552,114.486 102.948,113.981 102.948,113.455C102.948,113.454 102.948,113.452 102.948,113.451C102.948,112.533 103.996,111.706 105.604,111.355C107.212,111.004 109.063,111.198 110.293,111.847C118.456,116.15 131.564,123.059 139.741,127.37C141.698,128.402 142.798,129.801 142.798,131.26C142.798,132.719 141.698,134.119 139.741,135.15C131.564,139.461 118.456,146.37 110.293,150.673C109.063,151.322 107.212,151.516 105.604,151.165C103.996,150.814 102.948,149.987 102.948,149.069C102.948,149.068 102.948,149.067 102.948,149.065C102.948,148.539 102.552,148.035 101.846,147.662C101.14,147.29 100.183,147.081 99.184,147.081C87.765,147.081 53.224,147.081 35.7,147.081Z" style="fill:rgb(205,70,72);"/>
                </g>
            </g>
            <g transform="matrix(1,0,0,1,-431.092,325.838)">
                <text x="662.39px" y="170.372px" style="font-family:'Toledo';font-size:18.7px;fill:rgb(1,0,1);">Pour jouer, vous devez relier les les avec des lignes</text>
                <text x="705.53px" y="190.512px" style="font-family:'Toledo';font-size:18.7px;fill:rgb(1,0,1);">simple ou double en cliquant sur celles ci.</text>
                <text x="559.951px" y="230.792px" style="font-family:'Toledo';font-size:18.7px;fill:rgb(1,0,1);">Les les en bleue correspondent  celles o lle slectionne peut tre relie.</text>
            </g>
        </g>
        <g transform="matrix(1.00854,0,0,1,-13.6938,0)">
            <rect x="149.387" y="11.217" width="636.451" height="644.989" style="fill:none;"/>
        </g>
    </g>
</svg>
