<?xml version="1.0" encoding="UTF-8" standalone="no"?><!DOCTYPE svg PUBLIC "-//W3C//DTD SVG 1.1//EN" "http://www.w3.org/Graphics/SVG/1.1/DTD/svg11.dtd"><svg width="100%" height="100%" viewBox="0 0 2084 1544" version="1.1" xmlns="http://www.w3.org/2000/svg" xmlns:xlink="http://www.w3.org/1999/xlink" xml:space="preserve" xmlns:serif="http://www.serif.com/" style="fill-rule:evenodd;clip-rule:evenodd;stroke-linecap:round;stroke-linejoin:round;stroke-miterlimit:1.5;"><rect id="Background" x="-58.06" y="-45.892" width="2198.27" height="1552.58" style="fill:#f8ddd7;stroke:#010001;stroke-width:2.08px;"/><g><path d="M-244.219,674.595c-0,0 253.515,387.224 338.701,581.638c166.163,379.222 890.654,359.621 1196.42,293.048c104.09,-22.662 403.126,67.903 531.518,-86.95c120.125,-144.884 175.219,-131.132 256.209,-301.593c42.48,-89.409 9.449,-422.899 174.923,-439.338l-128.745,757.127l-1682.96,159.423l-558.449,-92.061l-127.62,-871.294Z" style="fill:#020547;"/><ellipse cx="2083.42" cy="495.812" rx="214.039" ry="189.332" style="fill:#cd4648;"/><ellipse cx="-75.574" cy="551.28" rx="214.039" ry="189.332" style="fill:#cd4648;"/><path d="M-67.955,236.953c-0,0 191.915,54.1 234.511,76.665c47.674,25.256 69.077,36.235 114.845,36.575c-0,0 11.596,-1.41 4.551,7.419c-7.044,8.829 -51.797,3.159 -96.626,-7.878c-44.829,-11.036 -14.742,-3.903 -79.458,-21.992c-66.603,-18.617 -198.221,-45.311 -198.221,-18.757l20.398,-72.032Z" style="fill:#020547;"/><path d="M69.543,296.37c0,0 29.701,20.132 32.061,36.407c3.154,21.749 -10.512,49.172 -10.512,49.172c0,0 2.628,4.255 7.358,-3.31c4.731,-7.565 19.447,-36.406 15.243,-49.645c-4.205,-13.238 -25.754,-35.46 -25.754,-35.46l-18.396,2.836Z" style="fill:#020547;"/><path d="M144.597,315.084c0,0 50.344,-1.69 45.234,-21.279c-0,-0 2.725,-1.809 4.769,3.917c2.045,5.726 -7.415,23.592 -27.857,26.606c-20.442,3.014 -28.278,3.414 -28.278,3.414" style="fill:#020547;"/><g><path d="M185.051,298.013c0.941,4.868 0.24,5.216 -1.092,10.084" style="fill:none;stroke:#020547;stroke-width:2.08px;"/><path d="M173.058,298.337c-0,-0 3.527,5.921 -5.115,15.281" style="fill:none;stroke:#020547;stroke-width:2.08px;"/><path d="M143.73,272.67c0.153,-0.031 0.312,-0.06 0.477,-0.087c0,0 16.499,-1.921 28.687,-3.784c12.187,-1.863 20.471,-7.699 27.631,-9.28c11.179,-2.47 23.123,6.889 26.053,10.028l12.722,1.309l-15.235,5.72c0,-0 -18.876,30.355 -46.771,24.59c-27.895,-5.764 -34.166,-21.786 -35.666,-25.368c-0.3,-0.363 -0.494,-0.7 -0.577,-1.011l-26.612,-19.176l6.316,-8.776l22.975,25.835Z" style="fill:#020547;"/><ellipse cx="207.788" cy="267.751" rx="2.07" ry="1.831" style="fill:#e9dfd5;"/></g><path d="M212.825,351.058c0,-0 -15.251,-23.479 -0.279,-8.763c14.972,14.715 78.56,49.249 81.515,47.089c2.955,-2.161 -16.015,-9.104 -25.391,-16.626c-9.376,-7.523 -31.835,-26.617 -36.414,-28.546" style="fill:#020547;"/><path d="M1593.36,472.159c1.679,0.905 3.244,1.989 4.656,3.239c4.68,4.139 7.309,9.754 7.309,15.608l0,0.006c0,4.937 -1.87,9.704 -5.263,13.559l-31.704,0c-6.618,0 -12.965,2.326 -17.645,6.466c-4.68,4.139 -7.309,9.754 -7.309,15.608c0,0.002 0,0.004 0,0.006c0,5.855 2.629,11.469 7.309,15.609c4.68,4.139 11.027,6.465 17.645,6.465c58.397,-0 203.411,-0 261.808,-0c6.618,-0 12.965,-2.326 17.645,-6.465c4.68,-4.14 7.309,-9.754 7.309,-15.609c0,-0.002 0,-0.004 0,-0.006c0,-5.854 -2.629,-11.469 -7.309,-15.608c-4.68,-4.14 -11.027,-6.466 -17.645,-6.466l-86.55,0c-3.393,-3.855 -5.262,-8.622 -5.262,-13.559l-0,-0.006c-0,-5.854 2.629,-11.469 7.308,-15.608c1.413,-1.25 2.978,-2.334 4.657,-3.239l42.677,-0c6.618,-0 12.965,-2.326 17.645,-6.465c4.68,-4.14 7.309,-9.754 7.309,-15.609c-0,-0.002 -0,-0.004 -0,-0.006c-0,-5.854 -2.629,-11.469 -7.309,-15.608c-4.68,-4.14 -11.027,-6.466 -17.645,-6.466c-58.397,0 -203.411,0 -261.808,0c-6.618,0 -12.965,2.326 -17.645,6.466c-4.68,4.139 -7.309,9.754 -7.309,15.608c0,0.002 0,0.004 0,0.006c0,5.855 2.629,11.469 7.309,15.609c4.68,4.139 11.027,6.465 17.645,6.465l62.172,-0Z" style="fill:#fffbf6;fill-opacity:0.36;"/><path d="M281.999,564.479c1.679,0.905 3.244,1.99 4.656,3.239c4.68,4.14 7.309,9.754 7.309,15.609l0,0.006c0,4.937 -1.869,9.703 -5.262,13.559l-31.704,0c-6.619,0 -12.966,2.326 -17.646,6.465c-4.679,4.14 -7.308,9.754 -7.308,15.609c-0,0.002 -0,0.004 -0,0.006c-0,5.854 2.629,11.469 7.308,15.608c4.68,4.14 11.027,6.465 17.646,6.465c58.396,0 203.41,0 261.807,0c6.618,0 12.966,-2.325 17.645,-6.465c4.68,-4.139 7.309,-9.754 7.309,-15.608c0,-0.002 0,-0.004 0,-0.006c0,-5.855 -2.629,-11.469 -7.309,-15.609c-4.679,-4.139 -11.027,-6.465 -17.645,-6.465l-86.55,0c-3.393,-3.856 -5.262,-8.622 -5.262,-13.559l-0,-0.006c-0,-5.855 2.629,-11.469 7.309,-15.609c1.412,-1.249 2.977,-2.333 4.656,-3.239l42.677,0c6.618,0 12.965,-2.325 17.645,-6.465c4.68,-4.139 7.309,-9.754 7.309,-15.608c-0,-0.002 -0,-0.004 -0,-0.006c-0,-5.855 -2.629,-11.469 -7.309,-15.609c-4.68,-4.139 -11.027,-6.465 -17.645,-6.465c-58.397,0 -203.411,0 -261.808,0c-6.618,0 -12.965,2.326 -17.645,6.465c-4.68,4.14 -7.309,9.754 -7.309,15.609c0,0.002 0,0.004 0,0.006c0,5.854 2.629,11.469 7.309,15.608c4.68,4.14 11.027,6.465 17.645,6.465l62.172,0Z" style="fill:#fffbf6;fill-opacity:0.49;"/><g><path d="M2234.69,524.348c-0,0 -209.591,35.846 -249.516,64.587c-39.925,28.741 -118.648,79.757 -174.543,71.134c-0,0 -11.738,0.581 -4.243,9.411c7.495,8.829 54.511,5.15 102.208,-5.886c47.697,-11.037 70.437,-29.26 139.293,-47.349c70.864,-18.616 208.504,-46.419 208.504,-19.865l-21.703,-72.032Z" style="fill:#020547;"/><path d="M2084.69,585.343c-0,0 -38.506,31.328 -41.565,56.654c-4.088,33.846 13.628,76.521 13.628,76.521c-0,-0 -3.407,6.622 -9.54,-5.151c-6.132,-11.772 -25.211,-56.654 -19.76,-77.256c5.451,-20.601 33.388,-55.183 33.388,-55.183l23.849,4.415Z" style="fill:#020547;"/><path d="M1972.25,603.57c-0,0 -41.241,-1.69 -37.055,-21.279c0,-0 -2.232,-1.809 -3.907,3.917c-1.675,5.726 6.075,23.592 22.82,26.606c16.746,3.014 23.165,3.414 23.165,3.414" style="fill:#020547;"/><path d="M1940.62,643.688c-0,0 -43.064,19.425 -74.68,41.792c-0,0 -18.992,13.444 -24.923,17.965c-5.93,4.52 2.094,2.637 8.373,-0c6.28,-2.637 37.678,-23.733 65.239,-32.021c27.56,-8.288 46.411,-25.763 46.411,-25.763" style="fill:#020547;"/><path d="M1898.12,673.533c-0,-0 9.768,3.39 9.768,11.678c-0,8.287 3.837,3.767 3.837,-2.637c0,-6.404 -4.884,-14.692 -4.884,-14.692" style="fill:#020547;"/></g><g><path d="M1943.92,584.686c-1.926,9.965 -0.49,10.677 2.236,20.642" style="fill:none;stroke:#051531;stroke-width:2.08px;"/><path d="M1968.47,585.348c0,0 -7.22,12.12 10.47,31.281" style="fill:none;stroke:#051531;stroke-width:2.08px;"/><path d="M2028.51,532.809c-0.312,-0.062 -0.638,-0.121 -0.977,-0.177c-0,0 -33.773,-3.933 -58.719,-7.746c-24.947,-3.812 -42.43,-11.098 -57.087,-14.336c-22.882,-5.055 -46.804,9.442 -52.802,15.868l-26.041,2.68l31.184,11.707c0,0 38.639,62.135 95.738,50.336c57.1,-11.799 69.935,-44.595 73.006,-51.929c0.614,-0.741 1.012,-1.432 1.183,-2.068l54.472,-39.252l-12.928,-17.964l-47.029,52.881Z" style="fill:#020547;"/><ellipse cx="1897.38" cy="522.74" rx="4.237" ry="3.748" style="fill:#e9dfd5;"/></g><path d="M2184.42,307.146l-335.069,-255.975" style="fill:none;"/><rect x="365.841" y="290.242" width="1503.54" height="1119.18" style="fill:none;"/><path d="M207.578,1131.35c-0,0 -120.395,154.83 -281.178,84.303c59.089,-159.652 215.914,-133.747 281.178,-84.303Z" style="fill:#020547;"/><path d="M153.699,739.681c-0,-0 55.418,348.969 -235.291,473.612c-137.238,-274.272 89.909,-448.646 235.291,-473.612Z" style="fill:#020547;"/><path d="M2108.8,1538.12c-29.449,0.1 -61.265,4.199 -90.667,0.107" style="fill:#020547;"/><path d="M2020.17,1385.51c-0.095,-0.491 -0.04,-0.998 0.159,-1.457c5.039,-10.471 33.779,-12.706 34.811,-2.584c11.563,113.327 14.466,117.94 17.488,150.5c0.3,3.208 -1.011,6.357 -3.499,8.405c-9.118,7.48 -18.578,8.96 -28.291,6.447c-3.898,-0.978 -6.782,-4.269 -7.239,-8.261c-4.702,-37.381 10.282,-30.577 -13.429,-153.05Zm-45.292,-437.46c-0.249,0.473 -0.342,1.012 -0.263,1.54c9.289,61.497 4.646,74.975 12.315,153.75c0.078,0.875 0.585,1.655 1.354,2.082c0.768,0.427 1.698,0.445 2.483,0.048c6.075,-2.861 16.733,-6.919 22.8,-7.581c0.83,0.221 1.715,0.006 2.352,-0.57c0.637,-0.576 0.938,-1.436 0.801,-2.283c-10.659,-67.847 -15.354,-82.931 -20.065,-150.662c-0.049,-0.703 -0.393,-1.354 -0.946,-1.792c-7.628,-6.005 -15.096,-5.402 -20.831,5.468Zm21.869,-22.062c0.327,1.327 -0.035,2.73 -0.963,3.734c-0.929,1.003 -2.3,1.472 -3.649,1.248c-4.082,-0.64 -9.509,-0.714 -14.219,1.83c-1.245,0.642 -2.737,0.576 -3.921,-0.172c-1.184,-0.748 -1.884,-2.067 -1.839,-3.467c0.938,-36.847 0.96,-48.897 -9.348,-84.88c-0.331,-1.18 -0.026,-2.447 0.806,-3.347c6.395,-7.009 10.376,-6.61 18.926,-3.974c1.506,0.454 2.53,1.852 2.508,3.425c-0.241,32.016 8.084,70.46 11.699,85.603Z" style="fill:#020547;"/><path d="M2033.89,1232.05c0.247,1.246 -0.102,2.535 -0.943,3.487c-0.842,0.951 -2.079,1.454 -3.346,1.361c-5.308,-0.382 -13.6,0.079 -20.551,5.125c-1.224,0.862 -2.829,0.963 -4.151,0.261c-1.322,-0.702 -2.137,-2.088 -2.108,-3.585c1.066,-49.698 -0.694,-71.072 -14.314,-118.469c-0.315,-1.102 -0.075,-2.288 0.644,-3.181c9.22,-11.467 16.464,-13.487 28.456,-10.186c1.555,0.422 2.625,1.846 2.597,3.457c-0.522,44.138 10.177,103.404 13.716,121.73Z" style="fill:#020547;"/><path d="M2053.6,1363.45c0.309,1.294 -0.034,2.657 -0.919,3.65c-0.885,0.993 -2.199,1.491 -3.52,1.332c-6.018,-0.709 -15.522,-0.718 -23.033,4.397c-1.223,0.822 -2.803,0.896 -4.097,0.19c-1.294,-0.706 -2.088,-2.074 -2.058,-3.547c1.088,-49.664 -0.463,-67.632 -14.251,-115.448c-0.23,-0.801 -0.17,-1.658 0.172,-2.418c5.503,-12.222 16.757,-12.426 29.424,-8.823c1.534,0.437 2.584,1.85 2.558,3.445c-0.458,43.443 11.503,99.021 15.724,117.222Z" style="fill:#020547;"/><path d="M2004.73,1070.43c-7.954,-32.703 -47.343,-67.471 -74.213,-97.967c15.31,29.395 28.386,75.439 74.213,97.967Z" style="fill:#020547;"/><path d="M2001.99,1071.93c24.432,-24.206 29.956,-59.004 25.789,-92.654c-2.843,-1.329 -35.828,43.96 -25.789,92.654Z" style="fill:#020547;"/><path d="M2003.63,1075.13c-18.516,-15.89 -36.935,-24.512 -80.1,-13.036c22.532,15.957 51.797,26.547 80.1,13.036Z" style="fill:#020547;"/><path d="M1956.39,1258.71c18.797,-17.166 23.748,-42.859 21.446,-68.03c-2.088,-1.087 -27.767,31.467 -21.446,68.03Z" style="fill:#020547;"/><path d="M1956.82,1257.68c-20.569,-26.343 -47.712,-31.633 -73.18,-26.281c-0.786,3.16 36.654,38.439 73.18,26.281Z" style="fill:#020547;"/><path d="M1953.03,1255.96c-12.263,-2.234 -21.96,4.584 -28.789,14.4c0.448,1.295 19.981,1.163 28.789,-14.4Z" style="fill:#020547;"/><path d="M1929.31,1211.35c13.991,-25.081 11.754,-53.314 2.409,-78.102c-2.392,-0.271 -18.959,43.292 -2.409,78.102Z" style="fill:#020547;"/><path d="M1931.69,1205.6c-14.018,-16.708 -31.916,-19.392 -48.5,-15.133c-0.451,2.099 24.806,24.186 48.5,15.133Z" style="fill:#020547;"/><path d="M2024.61,1312.55c-0,-0 -27.106,-70.233 -91.516,-55.829" style="fill:none;stroke:#020547;stroke-width:2.08px;"/><path d="M2027.8,1317.49c-4.496,-5.028 -77.421,-38.346 -98.289,-108.985" style="fill:none;stroke:#020547;stroke-width:2.08px;"/><path d="M2049.96,1540.33l-6.043,-3.092c-0,-0 -9.596,-84.682 47.653,-113.077c38.516,-19.103 91.633,24.014 91.633,24.014c-0,-0 -35.035,-11.227 -76.766,11.52c-42.52,23.177 -56.477,80.635 -56.477,80.635Z" style="fill:#020547;"/><path d="M2038.81,1543.1l1.993,-6.436c-0,0 49.19,-73.352 87.775,-23.027c25.959,33.856 35.064,69.756 35.064,69.756c0,-0 -18.459,-37.926 -60.997,-58.967c-42.849,-21.196 -63.835,18.674 -63.835,18.674Z" style="fill:#020547;"/><path d="M2035.94,1541.73l-0.894,-6.665c-0,0 -33.28,-72.512 -92.354,-48.045c-37.332,15.462 -65.055,63.594 -65.055,63.594c-0,-0 29.448,-19.481 74.929,-33.532c45.813,-14.154 83.374,24.648 83.374,24.648Z" style="fill:#020547;"/><path d="M2182.19,627.615c0,-0 -58.128,219.613 -88.875,410.568c-35.744,221.986 -43.647,395.409 -216.307,430.252c-157.061,31.695 -380.427,25.173 -666.71,34.762c-152.352,5.103 -689.393,-5.26 -872.971,-19.631c-183.578,-14.37 -217.368,-214.748 -464.304,-243.489l73.744,279.948c-105.661,224.355 2081.6,134.701 2150.95,48.86c32.241,-39.907 82.965,-718.758 81.686,-800.702c-1.244,-79.742 2.792,-140.568 2.792,-140.568Z" style="fill:#4a41af;"/></g></svg>