<?xml version="1.0" encoding="UTF-8" standalone="no"?>
<!DOCTYPE svg PUBLIC "-//W3C//DTD SVG 1.1//EN" "http://www.w3.org/Graphics/SVG/1.1/DTD/svg11.dtd">
<svg width="100%" height="100%" viewBox="0 0 44 19" version="1.1" xmlns="http://www.w3.org/2000/svg" xmlns:xlink="http://www.w3.org/1999/xlink" xml:space="preserve" xmlns:serif="http://www.serif.com/" style="fill-rule:evenodd;clip-rule:evenodd;stroke-linejoin:round;stroke-miterlimit:2;">
    <g transform="matrix(1,0,0,1,-627.775,-8.11037)">
        <g transform="matrix(1,0,0,1,74.6325,0)">
            <path d="M562.808,8.11L565.09,15.133L572.474,15.133L566.5,19.474L568.782,26.496L562.808,22.156L556.834,26.496L559.116,19.474L553.142,15.133L560.526,15.133L562.808,8.11Z" style="fill:rgb(0,20,83);"/>
        </g>
        <g transform="matrix(1,0,0,1,98.5971,0)">
            <path d="M562.808,8.11L565.09,15.133L572.474,15.133L566.5,19.474L568.782,26.496L562.808,22.156L556.834,26.496L559.116,19.474L553.142,15.133L560.526,15.133L562.808,8.11Z" style="fill:rgb(0,20,83);"/>
        </g>
    </g>
</svg>
