<?xml version="1.0" encoding="UTF-8" standalone="no"?>
<!DOCTYPE svg PUBLIC "-//W3C//DTD SVG 1.1//EN" "http://www.w3.org/Graphics/SVG/1.1/DTD/svg11.dtd">
<svg width="100%" height="100%" viewBox="0 0 245 40" version="1.1" xmlns="http://www.w3.org/2000/svg" xmlns:xlink="http://www.w3.org/1999/xlink" xml:space="preserve" xmlns:serif="http://www.serif.com/" style="fill-rule:evenodd;clip-rule:evenodd;stroke-linejoin:round;stroke-miterlimit:2;">
    <g transform="matrix(1,0,0,1,-280.645,-162.538)">
        <g>
            <g transform="matrix(1,0,0,1,-4.70146,7.71039)">
                <g transform="matrix(0.68461,0,0,0.68461,189.369,-37.9322)">
                    <g transform="matrix(1,0,0,1,-42.9637,-41.9454)">
                        <circle cx="213.745" cy="353.666" r="10.071" style="fill:rgb(248,221,215);"/>
                    </g>
                    <g transform="matrix(0.985076,-0.17212,0.17212,0.985076,-94.7306,-1.27165)">
                        <path d="M196.796,322.001C196.796,322.001 188.814,337.792 200.28,342.647C205.069,344.675 211.25,340.12 211.458,335.595C211.848,327.092 205.332,323.989 196.796,322.001Z" style="fill:rgb(248,221,215);"/>
                    </g>
                    <g transform="matrix(0.257897,-0.41173,0.494112,0.3095,-63.0679,285.409)">
                        <path d="M199.538,319.917C199.538,319.917 187.874,338.283 199.34,343.138C204.128,345.166 210.224,343.11 210.432,338.585C210.822,330.082 207.079,324.353 199.538,319.917Z" style="fill:rgb(248,221,215);"/>
                    </g>
                    <g transform="matrix(-0.425445,-0.234583,0.281521,-0.510571,158.12,547.765)">
                        <path d="M199.538,319.917C199.538,319.917 187.874,338.283 199.34,343.138C204.128,345.166 210.224,343.11 210.432,338.585C210.822,330.082 207.079,324.353 199.538,319.917Z" style="fill:rgb(248,221,215);"/>
                    </g>
                    <g transform="matrix(-1.66533e-16,0.485832,-0.583041,-1.94289e-16,385.218,217.254)">
                        <path d="M199.538,319.917C199.538,319.917 187.874,338.283 199.34,343.138C204.128,345.166 210.224,343.11 210.432,338.585C210.822,330.082 207.079,324.353 199.538,319.917Z" style="fill:rgb(248,221,215);"/>
                    </g>
                    <g transform="matrix(0.451955,0.178238,-0.213902,0.542387,156.735,73.072)">
                        <path d="M199.538,319.917C199.538,319.917 187.874,338.283 199.34,343.138C204.128,345.166 210.224,343.11 210.432,338.585C210.822,330.082 207.079,324.353 199.538,319.917Z" style="fill:rgb(248,221,215);"/>
                    </g>
                    <g transform="matrix(-0.866025,0.5,-0.5,-0.866025,525.977,516.793)">
                        <path d="M199.65,321.454C199.65,321.454 189.118,336.31 200.28,342.647C204.802,345.214 210.915,340.092 211.458,335.595C212.214,329.328 206.981,322.998 199.65,321.454Z" style="fill:rgb(248,221,215);"/>
                    </g>
                    <g transform="matrix(0.258819,0.965926,-0.965926,0.258819,457.531,18.8539)">
                        <path d="M198.081,320.534C198.081,320.534 188.814,337.792 200.28,342.647C205.069,344.675 211.25,340.12 211.458,335.595C211.848,327.092 205.413,322.078 198.081,320.534Z" style="fill:rgb(248,221,215);"/>
                    </g>
                    <g transform="matrix(0.0636273,-0.997974,0.997974,0.0636273,-194.219,501.883)">
                        <path d="M196.997,322.531C196.997,322.531 188.814,337.792 200.28,342.647C205.069,344.675 211.25,340.12 211.458,335.595C211.848,327.092 204.329,324.075 196.997,322.531Z" style="fill:rgb(248,221,215);"/>
                    </g>
                </g>
                <g transform="matrix(0.68461,0,0,0.68461,393.444,-38.2682)">
                    <g transform="matrix(1,0,0,1,-42.9637,-41.9454)">
                        <circle cx="213.745" cy="353.666" r="10.071" style="fill:rgb(248,221,215);"/>
                    </g>
                    <g transform="matrix(0.985076,-0.17212,0.17212,0.985076,-94.7306,-1.27165)">
                        <path d="M196.796,322.001C196.796,322.001 188.814,337.792 200.28,342.647C205.069,344.675 211.25,340.12 211.458,335.595C211.848,327.092 205.332,323.989 196.796,322.001Z" style="fill:rgb(248,221,215);"/>
                    </g>
                    <g transform="matrix(0.257897,-0.41173,0.494112,0.3095,-63.0679,285.409)">
                        <path d="M199.538,319.917C199.538,319.917 187.874,338.283 199.34,343.138C204.128,345.166 210.224,343.11 210.432,338.585C210.822,330.082 207.079,324.353 199.538,319.917Z" style="fill:rgb(248,221,215);"/>
                    </g>
                    <g transform="matrix(-0.425445,-0.234583,0.281521,-0.510571,158.12,547.765)">
                        <path d="M199.538,319.917C199.538,319.917 187.874,338.283 199.34,343.138C204.128,345.166 210.224,343.11 210.432,338.585C210.822,330.082 207.079,324.353 199.538,319.917Z" style="fill:rgb(248,221,215);"/>
                    </g>
                    <g transform="matrix(-1.66533e-16,0.485832,-0.583041,-1.94289e-16,385.218,217.254)">
                        <path d="M199.538,319.917C199.538,319.917 187.874,338.283 199.34,343.138C204.128,345.166 210.224,343.11 210.432,338.585C210.822,330.082 207.079,324.353 199.538,319.917Z" style="fill:rgb(248,221,215);"/>
                    </g>
                    <g transform="matrix(0.451955,0.178238,-0.213902,0.542387,156.735,73.072)">
                        <path d="M199.538,319.917C199.538,319.917 187.874,338.283 199.34,343.138C204.128,345.166 210.224,343.11 210.432,338.585C210.822,330.082 207.079,324.353 199.538,319.917Z" style="fill:rgb(248,221,215);"/>
                    </g>
                    <g transform="matrix(-0.866025,0.5,-0.5,-0.866025,525.977,516.793)">
                        <path d="M199.65,321.454C199.65,321.454 189.118,336.31 200.28,342.647C204.802,345.214 210.915,340.092 211.458,335.595C212.214,329.328 206.981,322.998 199.65,321.454Z" style="fill:rgb(248,221,215);"/>
                    </g>
                    <g transform="matrix(0.258819,0.965926,-0.965926,0.258819,457.531,18.8539)">
                        <path d="M198.081,320.534C198.081,320.534 188.814,337.792 200.28,342.647C205.069,344.675 211.25,340.12 211.458,335.595C211.848,327.092 205.413,322.078 198.081,320.534Z" style="fill:rgb(248,221,215);"/>
                    </g>
                    <g transform="matrix(0.0636273,-0.997974,0.997974,0.0636273,-194.219,501.883)">
                        <path d="M196.997,322.531C196.997,322.531 188.814,337.792 200.28,342.647C205.069,344.675 211.25,340.12 211.458,335.595C211.848,327.092 204.329,324.075 196.997,322.531Z" style="fill:rgb(248,221,215);"/>
                    </g>
                </g>
            </g>
            <g transform="matrix(0.647326,0,0,0.640019,107,71.959)">
                <text x="347.04px" y="183.873px" style="font-family:'Toledo';font-size:31.659px;fill:rgb(248,221,215);">CHARGEMENT</text>
            </g>
        </g>
    </g>
</svg>
